<svg width="61" height="60" viewBox="0 0 61 60" fill="none" xmlns="http://www.w3.org/2000/svg">
<path d="M54.582 16.6172C53.7966 14.7987 52.6642 13.1508 51.248 11.7657C49.8309 10.3764 48.1599 9.27245 46.3262 8.51371C44.4247 7.72383 42.3852 7.31952 40.3262 7.32426C37.4375 7.32426 34.6191 8.11528 32.1699 9.60942C31.584 9.96684 31.0273 10.3594 30.5 10.7872C29.9727 10.3594 29.416 9.96684 28.8301 9.60942C26.3809 8.11528 23.5625 7.32426 20.6738 7.32426C18.5938 7.32426 16.5781 7.7227 14.6738 8.51371C12.834 9.27543 11.1758 10.3711 9.75195 11.7657C8.33396 13.1492 7.20124 14.7975 6.41797 16.6172C5.60352 18.5098 5.1875 20.5196 5.1875 22.5879C5.1875 24.5391 5.58594 26.5723 6.37695 28.6407C7.03906 30.3692 7.98828 32.1621 9.20117 33.9727C11.123 36.8379 13.7656 39.8262 17.0469 42.8555C22.4844 47.877 27.8691 51.3457 28.0977 51.4864L29.4863 52.377C30.1016 52.7696 30.8926 52.7696 31.5078 52.377L32.8965 51.4864C33.125 51.3399 38.5039 47.877 43.9473 42.8555C47.2285 39.8262 49.8711 36.8379 51.793 33.9727C53.0059 32.1621 53.9609 30.3692 54.6172 28.6407C55.4082 26.5723 55.8066 24.5391 55.8066 22.5879C55.8125 20.5196 55.3965 18.5098 54.582 16.6172ZM30.5 47.7422C30.5 47.7422 9.64063 34.377 9.64063 22.5879C9.64063 16.6172 14.5801 11.7774 20.6738 11.7774C24.957 11.7774 28.6719 14.168 30.5 17.6602C32.3281 14.168 36.043 11.7774 40.3262 11.7774C46.4199 11.7774 51.3594 16.6172 51.3594 22.5879C51.3594 34.377 30.5 47.7422 30.5 47.7422Z" fill="white"/>
</svg>
