<svg width="61" height="60" viewBox="0 0 61 60" fill="none" xmlns="http://www.w3.org/2000/svg">
<path d="M55.8711 24.1406H40.8711C40.6133 24.1406 40.4023 24.3516 40.4023 24.6094V27.4219C40.4023 27.6797 40.6133 27.8906 40.8711 27.8906H55.8711C56.1289 27.8906 56.3398 27.6797 56.3398 27.4219V24.6094C56.3398 24.3516 56.1289 24.1406 55.8711 24.1406ZM48.0195 32.1094H40.8711C40.6133 32.1094 40.4023 32.3203 40.4023 32.5781V35.3906C40.4023 35.6484 40.6133 35.8594 40.8711 35.8594H48.0195C48.2773 35.8594 48.4883 35.6484 48.4883 35.3906V32.5781C48.4883 32.3203 48.2773 32.1094 48.0195 32.1094ZM28.4668 18.8965H25.9297C25.5664 18.8965 25.2734 19.1895 25.2734 19.5527V34.084C25.2734 34.2949 25.373 34.4883 25.543 34.6113L34.2676 40.9746C34.5605 41.1855 34.9707 41.127 35.1816 40.834L36.6875 38.7773V38.7715C36.8984 38.4785 36.834 38.0684 36.541 37.8574L29.1172 32.4902V19.5527C29.123 19.1895 28.8242 18.8965 28.4668 18.8965Z" fill="white"/>
<path d="M47.6563 39.4858H44.2696C43.9414 39.4858 43.6309 39.6557 43.4551 39.9369C42.711 41.1147 41.8438 42.2045 40.8477 43.2006C39.1309 44.9174 37.1328 46.2651 34.9121 47.2026C32.6094 48.1752 30.166 48.6674 27.6465 48.6674C25.1211 48.6674 22.6778 48.1752 20.3809 47.2026C18.1602 46.2651 16.1621 44.9174 14.4453 43.2006C12.7286 41.4838 11.3809 39.4858 10.4434 37.2651C9.47074 34.9682 8.97855 32.5248 8.97855 29.9994C8.97855 27.4741 9.47074 25.0366 10.4434 22.7338C11.3809 20.5131 12.7286 18.5151 14.4453 16.7983C16.1621 15.0815 18.1602 13.7338 20.3809 12.7963C22.6778 11.8237 25.127 11.3315 27.6465 11.3315C30.1719 11.3315 32.6153 11.8237 34.9121 12.7963C37.1328 13.7338 39.1309 15.0815 40.8477 16.7983C41.8438 17.7944 42.711 18.8842 43.4551 20.062C43.6309 20.3432 43.9414 20.5131 44.2696 20.5131H47.6563C48.0606 20.5131 48.3184 20.0913 48.1367 19.7338C44.3164 12.1342 36.5703 7.19478 27.9219 7.09517C15.2598 6.93697 4.74223 17.3022 4.71879 29.9526C4.69535 42.6264 14.9668 52.9096 27.6407 52.9096C36.4004 52.9096 44.2754 47.9526 48.1367 40.2651C48.3184 39.9076 48.0547 39.4858 47.6563 39.4858Z" fill="white"/>
</svg>
