<svg width="60" height="60" viewBox="0 0 60 60" fill="none" xmlns="http://www.w3.org/2000/svg">
<path fill-rule="evenodd" clip-rule="evenodd" d="M43.75 50C45.4076 50 46.9973 49.3415 48.1694 48.1694C49.3415 46.9973 50 45.4076 50 43.75C50 42.0924 49.3415 40.5027 48.1694 39.3306C46.9973 38.1585 45.4076 37.5 43.75 37.5C42.0924 37.5 40.5027 38.1585 39.3306 39.3306C38.1585 40.5027 37.5 42.0924 37.5 43.75C37.5 45.4076 38.1585 46.9973 39.3306 48.1694C40.5027 49.3415 42.0924 50 43.75 50ZM43.75 52.5C46.0706 52.5 48.2962 51.5781 49.9372 49.9372C51.5781 48.2962 52.5 46.0706 52.5 43.75C52.5 41.4294 51.5781 39.2038 49.9372 37.5628C48.2962 35.9219 46.0706 35 43.75 35C41.4294 35 39.2038 35.9219 37.5628 37.5628C35.9219 39.2038 35 41.4294 35 43.75C35 46.0706 35.9219 48.2962 37.5628 49.9372C39.2038 51.5781 41.4294 52.5 43.75 52.5Z" fill="white"/>
<path fill-rule="evenodd" clip-rule="evenodd" d="M43.75 39.375C44.0815 39.375 44.3995 39.5067 44.6339 39.7411C44.8683 39.9755 45 40.2935 45 40.625V43.2325L45.8838 44.1163C46.1115 44.352 46.2374 44.6678 46.2346 44.9955C46.2317 45.3233 46.1003 45.6368 45.8685 45.8685C45.6368 46.1003 45.3232 46.2317 44.9955 46.2346C44.6678 46.2374 44.352 46.1115 44.1162 45.8838L42.5 44.2675V40.625C42.5 40.2935 42.6317 39.9755 42.8661 39.7411C43.1005 39.5067 43.4185 39.375 43.75 39.375ZM17.5 28.75H15V31.25H17.5V28.75ZM15 26.25C14.337 26.25 13.7011 26.5134 13.2322 26.9822C12.7634 27.4511 12.5 28.087 12.5 28.75V31.25C12.5 31.913 12.7634 32.5489 13.2322 33.0178C13.7011 33.4866 14.337 33.75 15 33.75H17.5C18.163 33.75 18.7989 33.4866 19.2678 33.0178C19.7366 32.5489 20 31.913 20 31.25V28.75C20 28.087 19.7366 27.4511 19.2678 26.9822C18.7989 26.5134 18.163 26.25 17.5 26.25H15ZM27.5 28.75H25V31.25H27.5V28.75ZM25 26.25C24.337 26.25 23.7011 26.5134 23.2322 26.9822C22.7634 27.4511 22.5 28.087 22.5 28.75V31.25C22.5 31.913 22.7634 32.5489 23.2322 33.0178C23.7011 33.4866 24.337 33.75 25 33.75H27.5C28.163 33.75 28.7989 33.4866 29.2678 33.0178C29.7366 32.5489 30 31.913 30 31.25V28.75C30 28.087 29.7366 27.4511 29.2678 26.9822C28.7989 26.5134 28.163 26.25 27.5 26.25H25ZM37.5 28.75H35V31.25H37.5V28.75ZM35 26.25C34.337 26.25 33.7011 26.5134 33.2322 26.9822C32.7634 27.4511 32.5 28.087 32.5 28.75V31.25C32.5 31.913 32.7634 32.5489 33.2322 33.0178C33.7011 33.4866 34.337 33.75 35 33.75H37.5C38.163 33.75 38.7989 33.4866 39.2678 33.0178C39.7366 32.5489 40 31.913 40 31.25V28.75C40 28.087 39.7366 27.4511 39.2678 26.9822C38.7989 26.5134 38.163 26.25 37.5 26.25H35ZM17.5 38.75H15V41.25H17.5V38.75ZM15 36.25C14.337 36.25 13.7011 36.5134 13.2322 36.9822C12.7634 37.4511 12.5 38.087 12.5 38.75V41.25C12.5 41.913 12.7634 42.5489 13.2322 43.0178C13.7011 43.4866 14.337 43.75 15 43.75H17.5C18.163 43.75 18.7989 43.4866 19.2678 43.0178C19.7366 42.5489 20 41.913 20 41.25V38.75C20 38.087 19.7366 37.4511 19.2678 36.9822C18.7989 36.5134 18.163 36.25 17.5 36.25H15ZM27.5 38.75H25V41.25H27.5V38.75ZM25 36.25C24.337 36.25 23.7011 36.5134 23.2322 36.9822C22.7634 37.4511 22.5 38.087 22.5 38.75V41.25C22.5 41.913 22.7634 42.5489 23.2322 43.0178C23.7011 43.4866 24.337 43.75 25 43.75H27.5C28.163 43.75 28.7989 43.4866 29.2678 43.0178C29.7366 42.5489 30 41.913 30 41.25V38.75C30 38.087 29.7366 37.4511 29.2678 36.9822C28.7989 36.5134 28.163 36.25 27.5 36.25H25Z" fill="white"/>
<path fill-rule="evenodd" clip-rule="evenodd" d="M10 15C10 14.6685 10.1317 14.3505 10.3661 14.1161C10.6005 13.8817 10.9185 13.75 11.25 13.75H17.5V11.25H11.25C10.2554 11.25 9.30161 11.6451 8.59835 12.3483C7.89509 13.0516 7.5 14.0054 7.5 15V45C7.5 45.9946 7.89509 46.9484 8.59835 47.6516C9.30161 48.3549 10.2554 48.75 11.25 48.75H36.5687C36.0357 47.9865 35.6284 47.1424 35.3625 46.25H11.25C10.9185 46.25 10.6005 46.1183 10.3661 45.8839C10.1317 45.6495 10 45.3315 10 45V15ZM42.5 35.0875C43.3291 34.9689 44.1709 34.9689 45 35.0875V15C45 14.0054 44.6049 13.0516 43.9016 12.3483C43.1984 11.6451 42.2446 11.25 41.25 11.25H37.5V13.75H41.25C41.5815 13.75 41.8995 13.8817 42.1339 14.1161C42.3683 14.3505 42.5 14.6685 42.5 15V35.0875ZM20 13.75H33.2038V11.25H20V13.75Z" fill="white"/>
<path fill-rule="evenodd" clip-rule="evenodd" d="M45 22.5H10V20H45V22.5Z" fill="white"/>
<path d="M15 8.75C15 8.41848 15.1317 8.10054 15.3661 7.86612C15.6005 7.6317 15.9185 7.5 16.25 7.5C16.5815 7.5 16.8995 7.6317 17.1339 7.86612C17.3683 8.10054 17.5 8.41848 17.5 8.75V15C17.5 15.3315 17.3683 15.6495 17.1339 15.8839C16.8995 16.1183 16.5815 16.25 16.25 16.25C15.9185 16.25 15.6005 16.1183 15.3661 15.8839C15.1317 15.6495 15 15.3315 15 15V8.75ZM32.5 8.75C32.5 8.41848 32.6317 8.10054 32.8661 7.86612C33.1005 7.6317 33.4185 7.5 33.75 7.5C34.0815 7.5 34.3995 7.6317 34.6339 7.86612C34.8683 8.10054 35 8.41848 35 8.75V15C35 15.3315 34.8683 15.6495 34.6339 15.8839C34.3995 16.1183 34.0815 16.25 33.75 16.25C33.4185 16.25 33.1005 16.1183 32.8661 15.8839C32.6317 15.6495 32.5 15.3315 32.5 15V8.75Z" fill="white"/>
</svg>
