<svg width="170" height="82" viewBox="0 0 170 82" fill="none" xmlns="http://www.w3.org/2000/svg">
<path d="M37 25C38.3261 18.4071 39.6375 14.5354 44 7C43.1667 12.3486 43.1664 14.9909 44 19.0682C42.4096 18.9288 37.9616 22.5296 37 25Z" fill="#CFD5C8"/>
<path d="M9.92666 52.1243C15.5146 28.9374 21.3234 16.995 42.6296 0C28.5283 25.9149 26.1891 38.8787 31.7286 59.2417C24.4965 54.4953 19.7365 52.916 9.92666 52.1243Z" fill="#8EBBC7"/>
<path d="M0.295697 56.311C-0.705202 63.7454 0.754755 67.9416 5.90494 75.4651L4.84649 69.8131C4.50397 67.6144 4.77766 66.6252 6.22234 65.4171C9.18994 63.4673 11.3205 63.5695 15.3241 64.2657C21.7677 65.8372 25.2096 67.3573 31.3052 70.2318C42.0926 75.1687 48.1567 77.5352 59.0339 80.5938C64.382 81.8966 67.368 82.1143 72.6865 81.9545C77.0781 81.6253 79.1478 80.834 82 78.2912C76.4614 80.355 73.4101 80.4653 68.0298 79.3378C57.2279 76.4626 51.4921 73.8865 41.5711 68.3478C36.4882 66.5697 23.7879 58.7414 7.17485 56.311C2.04859 55.3303 0.402892 55.2742 0.295697 56.311Z" fill="#8EBBC7"/>
<path d="M18.0758 80.5938C17.3209 77.1424 16.4931 75.1903 12.1491 71.5924L11.5141 71.2784L12.1491 71.3831C19.1506 72.004 22.8575 72.8411 29.2943 74.7325C34.1491 76.2138 36.9179 77.497 41.9945 80.5938C35.9787 79.0692 32.6672 78.267 27.601 77.5585C21.7982 77.3329 20.3912 78.4571 18.0758 80.5938Z" fill="#8EBBC7"/>
<path d="M40.2 35H48.6C50 35 51.0133 35.32 51.64 35.96C52.28 36.5867 52.6 37.6 52.6 39V40.8C52.6 41.9067 52.4133 42.7667 52.04 43.38C51.68 43.9933 51.1 44.4 50.3 44.6L52.8 49H48.9L46.6 44.8H43.8V49H40.2V35ZM49 39C49 38.2 48.6 37.8 47.8 37.8H43.8V42H47.8C48.6 42 49 41.6 49 40.8V39ZM59.5945 38.8V49H56.0945V41.5H54.5945V38.8H59.5945ZM56.0945 34.8H59.5945V37.6H56.0945V34.8ZM69.5008 38.4H73.2008L69.2008 49H65.2008L61.2008 38.4H64.9008L67.2008 45.6L69.5008 38.4ZM78.707 40.7C78.1737 40.7 77.907 40.9667 77.907 41.5V42.6H81.307V41.5C81.307 40.9667 81.0404 40.7 80.507 40.7H78.707ZM84.407 48.8C81.8337 49.0667 79.5004 49.2 77.407 49.2C76.5004 49.2 75.7737 48.9267 75.227 48.38C74.6804 47.8333 74.407 47.1067 74.407 46.2V41.4C74.407 40.4 74.687 39.62 75.247 39.06C75.8204 38.4867 76.607 38.2 77.607 38.2H81.607C82.607 38.2 83.387 38.4867 83.947 39.06C84.5204 39.62 84.807 40.4 84.807 41.4V45.1H77.907V45.9C77.907 46.1 77.9737 46.2667 78.107 46.4C78.2404 46.5333 78.407 46.6 78.607 46.6C79.927 46.6 81.8604 46.5 84.407 46.3V48.8ZM93.4992 41.3C92.6592 41.3 91.7926 41.5 90.8992 41.9V49H87.3992V38.4H90.4992L90.6992 39.7C91.8459 38.7 93.0459 38.2 94.2992 38.2H95.1992V41.3H93.4992ZM104.395 35H112.395C113.701 35 114.661 35.3 115.275 35.9C115.888 36.4867 116.195 37.3867 116.195 38.6C116.195 39.4 116.021 40.0533 115.675 40.56C115.328 41.0533 114.901 41.4 114.395 41.6C115.475 41.8933 116.208 42.6133 116.595 43.76C116.728 44.1733 116.795 44.6533 116.795 45.2C116.795 46.5067 116.488 47.4667 115.875 48.08C115.261 48.6933 114.301 49 112.995 49H104.395V35ZM113.195 44.6C113.195 43.8 112.795 43.4 111.995 43.4H107.995V46.2H111.995C112.795 46.2 113.195 45.8 113.195 45V44.6ZM112.595 39C112.595 38.2 112.195 37.8 111.395 37.8H107.995V40.6H111.395C112.195 40.6 112.595 40.2 112.595 39.4V39ZM129.994 46C129.994 47 129.707 47.7867 129.134 48.36C128.574 48.92 127.794 49.2 126.794 49.2H122.194C121.194 49.2 120.407 48.92 119.834 48.36C119.274 47.7867 118.994 47 118.994 46V41.4C118.994 40.4 119.274 39.62 119.834 39.06C120.407 38.4867 121.194 38.2 122.194 38.2H126.794C127.794 38.2 128.574 38.4867 129.134 39.06C129.707 39.62 129.994 40.4 129.994 41.4V46ZM126.494 41.7C126.494 41.1667 126.227 40.9 125.694 40.9H123.294C122.76 40.9 122.494 41.1667 122.494 41.7V45.7C122.494 46.2333 122.76 46.5 123.294 46.5H125.694C126.227 46.5 126.494 46.2333 126.494 45.7V41.7ZM136.791 46.4C137.498 46.4 138.298 46.2667 139.191 46V44.8H136.291C136.091 44.8 135.925 44.8667 135.791 45C135.658 45.1333 135.591 45.3 135.591 45.5V45.7C135.591 45.9 135.658 46.0667 135.791 46.2C135.925 46.3333 136.091 46.4 136.291 46.4H136.791ZM133.091 38.6C135.531 38.3333 137.731 38.2 139.691 38.2C140.598 38.2 141.325 38.4733 141.871 39.02C142.418 39.5667 142.691 40.2933 142.691 41.2V49H139.591L139.391 48C138.765 48.4133 138.118 48.72 137.451 48.92C136.798 49.1067 136.245 49.2 135.791 49.2H135.091C134.185 49.2 133.458 48.9267 132.911 48.38C132.365 47.8333 132.091 47.1067 132.091 46.2V45.3C132.091 44.3933 132.365 43.6667 132.911 43.12C133.458 42.5733 134.185 42.3 135.091 42.3H139.191V41.5C139.191 41.3 139.125 41.1333 138.991 41C138.858 40.8667 138.691 40.8 138.491 40.8C137.625 40.8 136.665 40.84 135.611 40.92C134.571 41 133.731 41.06 133.091 41.1V38.6ZM152.686 49C151.393 49.1333 150.126 49.2 148.886 49.2C147.979 49.2 147.253 48.9267 146.706 48.38C146.159 47.8333 145.886 47.1067 145.886 46.2V41.1H144.686V38.4H145.886L146.286 36H149.386V38.4H151.886V41.1H149.386V45.7C149.386 45.9 149.453 46.0667 149.586 46.2C149.719 46.3333 149.886 46.4 150.086 46.4H152.686V49ZM154.495 46.2C157.201 46.4 159.335 46.5 160.895 46.5C161.095 46.5 161.261 46.4333 161.395 46.3C161.528 46.1667 161.595 46 161.595 45.8V45.1H157.295C156.388 45.1 155.661 44.8267 155.115 44.28C154.568 43.7333 154.295 43.0067 154.295 42.1V41.4C154.295 40.4933 154.568 39.7667 155.115 39.22C155.661 38.6733 156.388 38.4 157.295 38.4H164.095V41H158.495C158.295 41 158.128 41.0667 157.995 41.2C157.861 41.3333 157.795 41.5 157.795 41.7C157.795 41.9 157.861 42.0667 157.995 42.2C158.128 42.3333 158.295 42.4 158.495 42.4H162.095C163.001 42.4 163.728 42.6733 164.275 43.22C164.821 43.7667 165.095 44.4933 165.095 45.4V46.2C165.095 47.1067 164.821 47.8333 164.275 48.38C163.728 48.9267 163.001 49.2 162.095 49.2C159.735 49.2 157.201 49.0667 154.495 48.8V46.2Z" fill="white"/>
<path d="M49.9 64V57.7H48.1V57H52.7V57.7H50.9V64H49.9ZM54.1047 57H56.0047C56.7047 57 57.2447 57.1633 57.6247 57.49C58.0114 57.81 58.2047 58.23 58.2047 58.75C58.2047 59.2833 58.0114 59.7033 57.6247 60.01C57.4447 60.1433 57.2547 60.24 57.0547 60.3C57.3014 60.36 57.5347 60.4667 57.7547 60.62C58.2214 60.98 58.4547 61.4733 58.4547 62.1C58.4547 62.6933 58.2514 63.16 57.8447 63.5C57.4447 63.8333 56.8314 64 56.0047 64H54.1047V57ZM56.0047 60C56.3847 60 56.678 59.9 56.8847 59.7C57.098 59.4933 57.2047 59.21 57.2047 58.85C57.2047 58.49 57.098 58.21 56.8847 58.01C56.678 57.8033 56.3847 57.7 56.0047 57.7H55.1047V60H56.0047ZM56.0047 63.3C56.9714 63.3 57.4547 62.8667 57.4547 62C57.4547 61.1333 56.9714 60.7 56.0047 60.7H55.1047V63.3H56.0047ZM62.3566 64.1C61.59 64.1 60.99 63.8133 60.5566 63.24C60.1233 62.66 59.9066 61.7467 59.9066 60.5C59.9066 59.2533 60.1233 58.3433 60.5566 57.77C60.99 57.19 61.59 56.9 62.3566 56.9C63.1233 56.9 63.7233 57.19 64.1566 57.77C64.59 58.3433 64.8066 59.2533 64.8066 60.5C64.8066 61.7467 64.59 62.66 64.1566 63.24C63.7233 63.8133 63.1233 64.1 62.3566 64.1ZM62.3566 63.4C62.7766 63.4 63.1233 63.1733 63.3966 62.72C63.67 62.26 63.8066 61.52 63.8066 60.5C63.8066 59.48 63.67 58.7433 63.3966 58.29C63.1233 57.83 62.7766 57.6 62.3566 57.6C61.9366 57.6 61.59 57.83 61.3166 58.29C61.0433 58.7433 60.9066 59.48 60.9066 60.5C60.9066 61.52 61.0433 62.26 61.3166 62.72C61.59 63.1733 61.9366 63.4 62.3566 63.4ZM66.5527 64.1C66.3727 64.1 66.2227 64.0833 66.1027 64.05C66.0561 64.0433 66.0061 64.0267 65.9527 64L66.0527 63.35H66.1027L66.1627 63.38C66.2294 63.3933 66.2761 63.4 66.3027 63.4C66.3827 63.4 66.4594 63.3633 66.5327 63.29C66.6061 63.21 66.6627 63.0967 66.7027 62.95L67.0027 61.9C67.1027 61.5867 67.2594 61.3567 67.4727 61.21C67.5861 61.13 67.6961 61.0767 67.8027 61.05C67.5494 61.01 67.3061 60.9067 67.0727 60.74C66.8461 60.5667 66.6594 60.3433 66.5127 60.07C66.3727 59.79 66.3027 59.4833 66.3027 59.15C66.3027 58.4567 66.5094 57.9267 66.9227 57.56C67.3361 57.1867 67.9627 57 68.8027 57H70.5527V64H69.5527V61.3H68.9027C68.6827 61.3 68.4927 61.3667 68.3327 61.5C68.1794 61.6333 68.0694 61.8167 68.0027 62.05L67.7027 63.1C67.5094 63.7667 67.1261 64.1 66.5527 64.1ZM69.5527 60.6V57.7H68.8027C67.8027 57.7 67.3027 58.1833 67.3027 59.15C67.3027 60.1167 67.8027 60.6 68.8027 60.6H69.5527ZM75.8063 64.1C75.6663 64.1 75.5363 64.0833 75.4163 64.05C75.3763 64.0433 75.3229 64.0267 75.2563 64L75.3063 63.35H75.4063L75.4663 63.38C75.5329 63.3933 75.5796 63.4 75.6063 63.4C75.7463 63.4 75.8662 63.32 75.9663 63.16C76.0729 63 76.1363 62.7467 76.1563 62.4L76.4563 57H80.3563V64H79.3563V57.7H77.4063L77.1563 62.4C77.1229 62.9667 76.9863 63.3933 76.7463 63.68C76.5129 63.96 76.1996 64.1 75.8063 64.1ZM83.3198 64.15C83.0464 64.15 82.7898 64.1 82.5498 64C82.4431 63.96 82.3498 63.91 82.2698 63.85L82.5198 63.2H82.6198C82.6864 63.2667 82.7431 63.31 82.7898 63.33C82.9164 63.41 83.0598 63.45 83.2198 63.45C83.4131 63.45 83.5864 63.3867 83.7398 63.26C83.8931 63.1267 84.0031 62.9567 84.0698 62.75L84.2698 62.15H83.8198L81.7598 57H82.8098L84.2698 60.65C84.3298 60.81 84.3798 60.9667 84.4198 61.12L84.4898 61.4H84.5298C84.5431 61.3 84.5631 61.2067 84.5898 61.12L84.7198 60.65L85.9198 57H86.9198L85.0698 62.75C84.9431 63.1433 84.7198 63.4767 84.3998 63.75C84.0864 64.0167 83.7264 64.15 83.3198 64.15ZM91.5211 61.25C91.5211 61.25 91.3878 61.2767 91.1211 61.33C90.8278 61.3767 90.4944 61.4 90.1211 61.4C89.4744 61.4 88.9611 61.22 88.5811 60.86C88.2078 60.5 88.0211 60.03 88.0211 59.45V57H89.0211V59.45C89.0211 59.83 89.1411 60.1333 89.3811 60.36C89.6211 60.5867 89.9511 60.7 90.3711 60.7C90.6711 60.7 90.9444 60.6767 91.1911 60.63C91.4444 60.5633 91.5544 60.5367 91.5211 60.55V57H92.5211V64H91.5211V61.25ZM94.7172 64V57H95.7172V63.3H97.9172V57H98.9172V63.3H101.117V57H102.117V64H94.7172ZM103.566 64L105.616 57H106.916L108.966 64H107.966L107.416 62.2H105.116L104.566 64H103.566ZM107.216 61.5L106.416 58.75C106.39 58.6767 106.366 58.5933 106.346 58.5C106.333 58.4 106.323 58.3267 106.316 58.28L106.286 58.05H106.246L106.216 58.29C106.17 58.5167 106.136 58.67 106.116 58.75L105.316 61.5H107.216ZM110.32 64.1C110.14 64.1 109.99 64.0833 109.87 64.05C109.823 64.0433 109.773 64.0267 109.72 64L109.82 63.35H109.87L109.93 63.38C109.996 63.3933 110.043 63.4 110.07 63.4C110.15 63.4 110.226 63.3633 110.3 63.29C110.373 63.21 110.43 63.0967 110.47 62.95L110.77 61.9C110.87 61.5867 111.026 61.3567 111.24 61.21C111.353 61.13 111.463 61.0767 111.57 61.05C111.316 61.01 111.073 60.9067 110.84 60.74C110.613 60.5667 110.426 60.3433 110.28 60.07C110.14 59.79 110.07 59.4833 110.07 59.15C110.07 58.4567 110.276 57.9267 110.69 57.56C111.103 57.1867 111.73 57 112.57 57H114.32V64H113.32V61.3H112.67C112.45 61.3 112.26 61.3667 112.1 61.5C111.946 61.6333 111.836 61.8167 111.77 62.05L111.47 63.1C111.276 63.7667 110.893 64.1 110.32 64.1ZM113.32 60.6V57.7H112.57C111.57 57.7 111.07 58.1833 111.07 59.15C111.07 60.1167 111.57 60.6 112.57 60.6H113.32ZM119.573 64.1C119.433 64.1 119.303 64.0833 119.183 64.05C119.143 64.0433 119.09 64.0267 119.023 64L119.073 63.35H119.173L119.233 63.38C119.3 63.3933 119.346 63.4 119.373 63.4C119.513 63.4 119.633 63.32 119.733 63.16C119.84 63 119.903 62.7467 119.923 62.4L120.223 57H124.123V64H123.123V57.7H121.173L120.923 62.4C120.89 62.9667 120.753 63.3933 120.513 63.68C120.28 63.96 119.966 64.1 119.573 64.1ZM128.427 64.1C127.66 64.1 127.06 63.8133 126.627 63.24C126.193 62.66 125.977 61.7467 125.977 60.5C125.977 59.2533 126.193 58.3433 126.627 57.77C127.06 57.19 127.66 56.9 128.427 56.9C129.193 56.9 129.793 57.19 130.227 57.77C130.66 58.3433 130.877 59.2533 130.877 60.5C130.877 61.7467 130.66 62.66 130.227 63.24C129.793 63.8133 129.193 64.1 128.427 64.1ZM128.427 63.4C128.847 63.4 129.193 63.1733 129.467 62.72C129.74 62.26 129.877 61.52 129.877 60.5C129.877 59.48 129.74 58.7433 129.467 58.29C129.193 57.83 128.847 57.6 128.427 57.6C128.007 57.6 127.66 57.83 127.387 58.29C127.113 58.7433 126.977 59.48 126.977 60.5C126.977 61.52 127.113 62.26 127.387 62.72C127.66 63.1733 128.007 63.4 128.427 63.4ZM131.727 63.3H132.227C132.327 63.18 132.411 63.0367 132.477 62.87C132.644 62.4967 132.744 62.04 132.777 61.5L133.027 57H136.777V63.3H137.427V65.5H136.627L136.477 64H132.727L132.577 65.5H131.727V63.3ZM135.777 63.3V57.7H133.977L133.777 61.5C133.744 62.04 133.644 62.4967 133.477 62.87C133.411 63.0367 133.327 63.18 133.227 63.3H135.777ZM143.229 64.1C142.915 64.1 142.662 64.0133 142.469 63.84C142.275 63.66 142.145 63.4133 142.079 63.1L141.729 61.5C141.609 61 141.309 60.75 140.829 60.75H140.129V64H139.129V57H140.129V60.05H140.729C141.002 60.05 141.219 59.9833 141.379 59.85C141.539 59.7167 141.639 59.5333 141.679 59.3L141.929 57.9C141.989 57.5933 142.115 57.35 142.309 57.17C142.509 56.99 142.765 56.9 143.079 56.9C143.259 56.9 143.409 56.9167 143.529 56.95L143.679 57L143.579 57.65H143.529C143.529 57.65 143.509 57.6433 143.469 57.63C143.389 57.61 143.342 57.6 143.329 57.6C143.109 57.6 142.975 57.75 142.929 58.05L142.679 59.45C142.619 59.79 142.435 60.04 142.129 60.2C142.002 60.2667 141.852 60.3167 141.679 60.35C141.839 60.39 141.989 60.45 142.129 60.53C142.435 60.7233 142.635 60.9967 142.729 61.35L143.079 62.95C143.152 63.25 143.285 63.4 143.479 63.4C143.505 63.4 143.552 63.3933 143.619 63.38L143.679 63.35H143.729L143.829 64C143.782 64.0267 143.732 64.0433 143.679 64.05C143.559 64.0833 143.409 64.1 143.229 64.1ZM144.628 64L146.678 57H147.978L150.028 64H149.028L148.478 62.2H146.178L145.628 64H144.628ZM148.278 61.5L147.478 58.75C147.451 58.6767 147.428 58.5933 147.408 58.5C147.395 58.4 147.385 58.3267 147.378 58.28L147.348 58.05H147.308L147.278 58.29C147.231 58.5167 147.198 58.67 147.178 58.75L146.378 61.5H148.278Z" fill="white"/>
</svg>
