<svg width="22" height="23" viewBox="0 0 22 23" fill="none" xmlns="http://www.w3.org/2000/svg">
<path d="M19.0266 5.4457L16.7385 3.15977C16.5771 2.99765 16.3852 2.86903 16.174 2.78128C15.9627 2.69353 15.7362 2.64838 15.5074 2.64844C15.0412 2.64844 14.6029 2.83105 14.2742 3.15977L11.8121 5.62187C11.65 5.78328 11.5214 5.97512 11.4336 6.18639C11.3459 6.39765 11.3007 6.62417 11.3008 6.85293C11.3008 7.31914 11.4834 7.75742 11.8121 8.08613L13.6125 9.88652C13.1911 10.8154 12.6052 11.6605 11.883 12.3809C11.1627 13.1048 10.3177 13.6928 9.38868 14.1168L7.58829 12.3164C7.42688 12.1543 7.23504 12.0257 7.02377 11.9379C6.81251 11.8502 6.58599 11.805 6.35723 11.8051C5.89102 11.8051 5.45274 11.9877 5.12403 12.3164L2.65977 14.7764C2.49745 14.9381 2.36872 15.1303 2.28096 15.3419C2.19321 15.5536 2.14817 15.7805 2.14844 16.0096C2.14844 16.4758 2.33106 16.9141 2.65977 17.2428L4.94356 19.5266C5.46778 20.0529 6.1918 20.3516 6.93516 20.3516C7.092 20.3516 7.24239 20.3387 7.39063 20.3129C10.2867 19.8359 13.1592 18.2955 15.4774 15.9795C17.7934 13.6656 19.3317 10.7953 19.8151 7.89062C19.9611 7.00332 19.6668 6.09023 19.0266 5.4457Z" fill="white"/>
</svg>
