<svg width="22" height="22" viewBox="0 0 22 22" fill="none" xmlns="http://www.w3.org/2000/svg">
<g clip-path="url(#clip0_15_5933)">
<path d="M19.25 4.125C19.6147 4.125 19.9644 4.26987 20.2223 4.52773C20.4801 4.78559 20.625 5.13533 20.625 5.5V16.5C20.625 16.8647 20.4801 17.2144 20.2223 17.4723C19.9644 17.7301 19.6147 17.875 19.25 17.875H2.75C2.38533 17.875 2.03559 17.7301 1.77773 17.4723C1.51987 17.2144 1.375 16.8647 1.375 16.5V5.5C1.375 5.13533 1.51987 4.78559 1.77773 4.52773C2.03559 4.26987 2.38533 4.125 2.75 4.125H19.25ZM2.75 2.75C2.02065 2.75 1.32118 3.03973 0.805456 3.55546C0.289731 4.07118 0 4.77065 0 5.5L0 16.5C0 17.2293 0.289731 17.9288 0.805456 18.4445C1.32118 18.9603 2.02065 19.25 2.75 19.25H19.25C19.9793 19.25 20.6788 18.9603 21.1945 18.4445C21.7103 17.9288 22 17.2293 22 16.5V5.5C22 4.77065 21.7103 4.07118 21.1945 3.55546C20.6788 3.03973 19.9793 2.75 19.25 2.75H2.75Z" fill="url(#paint0_linear_15_5933)"/>
<path d="M2.75 7.5625C2.75 7.38016 2.82243 7.2053 2.95136 7.07636C3.0803 6.94743 3.25516 6.875 3.4375 6.875H6.1875C6.36984 6.875 6.5447 6.94743 6.67364 7.07636C6.80257 7.2053 6.875 7.38016 6.875 7.5625V8.9375C6.875 9.11984 6.80257 9.2947 6.67364 9.42364C6.5447 9.55257 6.36984 9.625 6.1875 9.625H3.4375C3.25516 9.625 3.0803 9.55257 2.95136 9.42364C2.82243 9.2947 2.75 9.11984 2.75 8.9375V7.5625ZM2.75 11.6875C2.75 11.5052 2.82243 11.3303 2.95136 11.2014C3.0803 11.0724 3.25516 11 3.4375 11H10.3125C10.4948 11 10.6697 11.0724 10.7986 11.2014C10.9276 11.3303 11 11.5052 11 11.6875C11 11.8698 10.9276 12.0447 10.7986 12.1736C10.6697 12.3026 10.4948 12.375 10.3125 12.375H3.4375C3.25516 12.375 3.0803 12.3026 2.95136 12.1736C2.82243 12.0447 2.75 11.8698 2.75 11.6875ZM2.75 14.4375C2.75 14.2552 2.82243 14.0803 2.95136 13.9514C3.0803 13.8224 3.25516 13.75 3.4375 13.75H4.8125C4.99484 13.75 5.1697 13.8224 5.29864 13.9514C5.42757 14.0803 5.5 14.2552 5.5 14.4375C5.5 14.6198 5.42757 14.7947 5.29864 14.9236C5.1697 15.0526 4.99484 15.125 4.8125 15.125H3.4375C3.25516 15.125 3.0803 15.0526 2.95136 14.9236C2.82243 14.7947 2.75 14.6198 2.75 14.4375ZM6.875 14.4375C6.875 14.2552 6.94743 14.0803 7.07636 13.9514C7.2053 13.8224 7.38016 13.75 7.5625 13.75H8.9375C9.11984 13.75 9.2947 13.8224 9.42364 13.9514C9.55257 14.0803 9.625 14.2552 9.625 14.4375C9.625 14.6198 9.55257 14.7947 9.42364 14.9236C9.2947 15.0526 9.11984 15.125 8.9375 15.125H7.5625C7.38016 15.125 7.2053 15.0526 7.07636 14.9236C6.94743 14.7947 6.875 14.6198 6.875 14.4375ZM11 14.4375C11 14.2552 11.0724 14.0803 11.2014 13.9514C11.3303 13.8224 11.5052 13.75 11.6875 13.75H13.0625C13.2448 13.75 13.4197 13.8224 13.5486 13.9514C13.6776 14.0803 13.75 14.2552 13.75 14.4375C13.75 14.6198 13.6776 14.7947 13.5486 14.9236C13.4197 15.0526 13.2448 15.125 13.0625 15.125H11.6875C11.5052 15.125 11.3303 15.0526 11.2014 14.9236C11.0724 14.7947 11 14.6198 11 14.4375ZM15.125 14.4375C15.125 14.2552 15.1974 14.0803 15.3264 13.9514C15.4553 13.8224 15.6302 13.75 15.8125 13.75H17.1875C17.3698 13.75 17.5447 13.8224 17.6736 13.9514C17.8026 14.0803 17.875 14.2552 17.875 14.4375C17.875 14.6198 17.8026 14.7947 17.6736 14.9236C17.5447 15.0526 17.3698 15.125 17.1875 15.125H15.8125C15.6302 15.125 15.4553 15.0526 15.3264 14.9236C15.1974 14.7947 15.125 14.6198 15.125 14.4375Z" fill="url(#paint1_linear_15_5933)"/>
</g>
<defs>
<linearGradient id="paint0_linear_15_5933" x1="11" y1="1.44207" x2="18.4361" y2="16.5235" gradientUnits="userSpaceOnUse">
<stop stop-color="#6B7F87"/>
<stop offset="1" stop-color="#2A4752"/>
</linearGradient>
<linearGradient id="paint1_linear_15_5933" x1="10.3125" y1="6.22104" x2="13.2909" y2="14.5269" gradientUnits="userSpaceOnUse">
<stop stop-color="#6B7F87"/>
<stop offset="1" stop-color="#2A4752"/>
</linearGradient>
<clipPath id="clip0_15_5933">
<rect width="22" height="22" fill="white"/>
</clipPath>
</defs>
</svg>
