<svg width="20" height="21" viewBox="0 0 20 21" fill="none" xmlns="http://www.w3.org/2000/svg">
<path d="M4.16602 6.3335H15.6577C15.8905 6.3335 16.1208 6.38231 16.3336 6.47675C16.5465 6.5712 16.7372 6.70919 16.8934 6.88184C17.0496 7.05449 17.168 7.25796 17.2408 7.47914C17.3135 7.70032 17.3392 7.9343 17.316 8.166L16.816 13.166C16.7749 13.5773 16.5824 13.9586 16.276 14.2359C15.9695 14.5132 15.571 14.6668 15.1577 14.6668H7.19935C6.81391 14.667 6.44033 14.5335 6.14222 14.2892C5.84411 14.0449 5.6399 13.7048 5.56435 13.3268L4.16602 6.3335Z" stroke="white" stroke-width="2" stroke-linejoin="round"/>
<path d="M4.16602 6.33333L3.49102 3.63083C3.44587 3.45063 3.34181 3.29067 3.19536 3.17638C3.0489 3.06209 2.86846 3 2.68268 3H1.66602" stroke="white" stroke-width="2" stroke-linecap="round" stroke-linejoin="round"/>
<path d="M6.66602 18H8.33268" stroke="white" stroke-width="2" stroke-linecap="round" stroke-linejoin="round"/>
<path d="M13.332 18H14.9987" stroke="white" stroke-width="2" stroke-linecap="round" stroke-linejoin="round"/>
</svg>
