<svg width="22" height="22" viewBox="0 0 22 22" fill="none" xmlns="http://www.w3.org/2000/svg">
<path d="M5.025 4C4.22272 4 3.4533 4.3187 2.886 4.886C2.3187 5.4533 2 6.22272 2 7.025V13.075C2 13.8773 2.3187 14.6467 2.886 15.214C3.4533 15.7813 4.22272 16.1 5.025 16.1H11.0695C10.9467 15.7439 10.8655 15.3748 10.8275 15H5.025C4.51446 15 4.02483 14.7972 3.66382 14.4362C3.30281 14.0752 3.1 13.5855 3.1 13.075V8.4H13.187C13.3322 7.9897 13.5566 7.6179 13.8404 7.3H3.1V7.025C3.1 5.9624 3.9624 5.1 5.025 5.1H16.575C17.6376 5.1 18.5 5.9624 18.5 7.025V7.0404C19.1754 7.6454 19.6 8.5221 19.6 9.5V7.025C19.6 6.22272 19.2813 5.4533 18.714 4.886C18.1467 4.3187 17.3773 4 16.575 4H5.025ZM14.1 9.5C14.1 8.91652 14.3318 8.35695 14.7444 7.94437C15.1569 7.53179 15.7165 7.3 16.3 7.3C16.8835 7.3 17.4431 7.53179 17.8556 7.94437C18.2682 8.35695 18.5 8.91652 18.5 9.5C18.5 10.0835 18.2682 10.6431 17.8556 11.0556C17.4431 11.4682 16.8835 11.7 16.3 11.7C15.7165 11.7 15.1569 11.4682 14.7444 11.0556C14.3318 10.6431 14.1 10.0835 14.1 9.5ZM13.55 12.8H19.05C19.4876 12.8 19.9073 12.9738 20.2167 13.2833C20.5262 13.5927 20.7 14.0124 20.7 14.45C20.7 15.6776 20.1951 16.661 19.3668 17.3265C18.5517 17.981 17.4583 18.3 16.3 18.3C15.1417 18.3 14.0483 17.981 13.2332 17.3265C12.406 16.661 11.9 15.6776 11.9 14.45C11.9 14.0124 12.0738 13.5927 12.3833 13.2833C12.6927 12.9738 13.1124 12.8 13.55 12.8Z" fill="url(#paint0_linear_15_5939)"/>
<defs>
<linearGradient id="paint0_linear_15_5939" x1="11.35" y1="2.86646" x2="17.8705" y2="15.8366" gradientUnits="userSpaceOnUse">
<stop stop-color="#6B7F87"/>
<stop offset="1" stop-color="#2A4752"/>
</linearGradient>
</defs>
</svg>
