<svg width="22" height="22" viewBox="0 0 22 22" fill="none" xmlns="http://www.w3.org/2000/svg">
<path d="M1.70711 0.292893C1.31658 -0.0976311 0.683418 -0.0976311 0.292893 0.292893C-0.0976311 0.683418 -0.0976311 1.31658 0.292893 1.70711L1.70711 0.292893ZM0.292893 20.2929C-0.0976311 20.6834 -0.0976311 21.3166 0.292893 21.7071C0.683418 22.0976 1.31658 22.0976 1.70711 21.7071L0.292893 20.2929ZM21.7071 1.70711C22.0976 1.31658 22.0976 0.683418 21.7071 0.292893C21.3166 -0.0976311 20.6834 -0.0976311 20.2929 0.292893L21.7071 1.70711ZM20.2929 21.7071C20.6834 22.0976 21.3166 22.0976 21.7071 21.7071C22.0976 21.3166 22.0976 20.6834 21.7071 20.2929L20.2929 21.7071ZM21.7071 20.2929C21.6919 20.2776 21.6766 20.2624 21.6614 20.2472C21.6462 20.2319 21.6309 20.2167 21.6157 20.2015C21.6005 20.1863 21.5853 20.1711 21.5702 20.156C21.555 20.1408 21.5398 20.1256 21.5247 20.1105C21.5095 20.0953 21.4944 20.0802 21.4793 20.065C21.4641 20.0499 21.449 20.0348 21.4339 20.0197C21.4188 20.0046 21.4037 19.9895 21.3887 19.9744C21.3736 19.9594 21.3585 19.9443 21.3435 19.9293C21.3284 19.9142 21.3134 19.8992 21.2984 19.8842C21.2833 19.8691 21.2683 19.8541 21.2533 19.8391C21.2383 19.8241 21.2234 19.8091 21.2084 19.7942C21.1934 19.7792 21.1784 19.7642 21.1635 19.7493C21.1486 19.7343 21.1336 19.7194 21.1187 19.7045C21.1038 19.6896 21.0889 19.6746 21.074 19.6597C21.0591 19.6448 21.0442 19.63 21.0293 19.6151C21.0144 19.6002 20.9996 19.5854 20.9847 19.5705C20.9699 19.5557 20.955 19.5408 20.9402 19.526C20.9254 19.5112 20.9106 19.4964 20.8958 19.4816C20.881 19.4668 20.8662 19.452 20.8514 19.4372C20.8366 19.4224 20.8219 19.4077 20.8071 19.3929C20.7924 19.3781 20.7776 19.3634 20.7629 19.3487C20.7482 19.334 20.7335 19.3192 20.7187 19.3045C20.704 19.2898 20.6894 19.2751 20.6747 19.2605C20.66 19.2458 20.6453 19.2311 20.6307 19.2165C20.616 19.2018 20.6014 19.1872 20.5867 19.1725C20.5721 19.1579 20.5575 19.1433 20.5429 19.1287C20.5283 19.1141 20.5137 19.0995 20.4991 19.0849C20.4845 19.0703 20.4699 19.0557 20.4554 19.0412C20.4408 19.0266 20.4263 19.012 20.4117 18.9975C20.3972 18.983 20.3826 18.9684 20.3681 18.9539C20.3536 18.9394 20.3391 18.9249 20.3246 18.9104C20.3101 18.8959 20.2956 18.8814 20.2812 18.867C20.2667 18.8525 20.2523 18.838 20.2378 18.8236C20.2234 18.8091 20.2089 18.7947 20.1945 18.7803C20.1801 18.7659 20.1657 18.7514 20.1513 18.737C20.1369 18.7226 20.1225 18.7083 20.1081 18.6939C20.0937 18.6795 20.0793 18.6651 20.065 18.6508C20.0506 18.6364 20.0363 18.6221 20.022 18.6077C20.0076 18.5934 19.9933 18.5791 19.979 18.5648C19.9647 18.5505 19.9504 18.5362 19.9361 18.5219C19.9218 18.5076 19.9075 18.4933 19.8932 18.479C19.879 18.4648 19.8647 18.4505 19.8505 18.4363C19.8362 18.422 19.822 18.4078 19.8078 18.3936C19.7936 18.3793 19.7793 18.3651 19.7651 18.3509C19.7509 18.3367 19.7367 18.3225 19.7226 18.3083C19.7084 18.2942 19.6942 18.28 19.6801 18.2658C19.6659 18.2517 19.6517 18.2375 19.6376 18.2234C19.6235 18.2093 19.6093 18.1951 19.5952 18.181C19.5811 18.1669 19.567 18.1528 19.5529 18.1387C19.5388 18.1246 19.5247 18.1105 19.5107 18.0964C19.4966 18.0824 19.4825 18.0683 19.4685 18.0543C19.4544 18.0402 19.4404 18.0262 19.4263 18.0121C19.4123 17.9981 19.3983 17.9841 19.3843 17.9701C19.3703 17.9561 19.3563 17.9421 19.3423 17.9281C19.3283 17.9141 19.3143 17.9001 19.3003 17.8861C19.2864 17.8722 19.2724 17.8582 19.2585 17.8442C19.2445 17.8303 19.2306 17.8164 19.2166 17.8024C19.2027 17.7885 19.1888 17.7746 19.1749 17.7607C19.161 17.7468 19.1471 17.7329 19.1332 17.719C19.1193 17.7051 19.1054 17.6912 19.0916 17.6773C19.0777 17.6635 19.0638 17.6496 19.05 17.6358C19.0361 17.6219 19.0223 17.6081 19.0085 17.5943C18.9946 17.5804 18.9808 17.5666 18.967 17.5528C18.9532 17.539 18.9394 17.5252 18.9256 17.5114C18.9118 17.4976 18.8981 17.4838 18.8843 17.4701C18.8705 17.4563 18.8568 17.4425 18.843 17.4288C18.8293 17.415 18.8155 17.4013 18.8018 17.3876C18.7881 17.3738 18.7743 17.3601 18.7606 17.3464C18.7469 17.3327 18.7332 17.319 18.7195 17.3053C18.7058 17.2916 18.6921 17.2779 18.6785 17.2643C18.6648 17.2506 18.6511 17.2369 18.6375 17.2233C18.6238 17.2096 18.6102 17.196 18.5965 17.1823C18.5829 17.1687 18.5693 17.1551 18.5557 17.1415C18.5421 17.1278 18.5284 17.1142 18.5149 17.1006C18.5013 17.087 18.4877 17.0735 18.4741 17.0599C18.4605 17.0463 18.4469 17.0327 18.4334 17.0192C18.4198 17.0056 18.4063 16.9921 18.3927 16.9785C18.3792 16.965 18.3656 16.9514 18.3521 16.9379C18.3386 16.9244 18.3251 16.9109 18.3116 16.8974C18.2981 16.8839 18.2846 16.8704 18.2711 16.8569C18.2576 16.8434 18.2441 16.8299 18.2307 16.8164C18.2172 16.803 18.2037 16.7895 18.1903 16.7761C18.1768 16.7626 18.1634 16.7492 18.1499 16.7357C18.1365 16.7223 18.1231 16.7089 18.1097 16.6955C18.0962 16.682 18.0828 16.6686 18.0694 16.6552C18.056 16.6418 18.0427 16.6284 18.0293 16.6151C18.0159 16.6017 18.0025 16.5883 17.9892 16.5749C17.9758 16.5616 17.9624 16.5482 17.9491 16.5349C17.9357 16.5215 17.9224 16.5082 17.9091 16.4949C17.8957 16.4815 17.8824 16.4682 17.8691 16.4549C17.8558 16.4416 17.8425 16.4283 17.8292 16.415C17.8159 16.4017 17.8026 16.3884 17.7893 16.3751C17.7761 16.3618 17.7628 16.3486 17.7495 16.3353C17.7363 16.322 17.723 16.3088 17.7098 16.2955C17.6965 16.2823 17.6833 16.2691 17.67 16.2558C17.6568 16.2426 17.6436 16.2294 17.6304 16.2162C17.6172 16.203 17.604 16.1898 17.5908 16.1766C17.5776 16.1634 17.5644 16.1502 17.5512 16.137C17.538 16.1238 17.5248 16.1106 17.5117 16.0975C17.4985 16.0843 17.4854 16.0712 17.4722 16.058C17.4591 16.0449 17.4459 16.0317 17.4328 16.0186C17.4197 16.0055 17.4065 15.9923 17.3934 15.9792C17.3803 15.9661 17.3672 15.953 17.3541 15.9399C17.341 15.9268 17.3279 15.9137 17.3148 15.9006C17.3017 15.8875 17.2887 15.8744 17.2756 15.8614C17.2625 15.8483 17.2495 15.8352 17.2364 15.8222C17.2233 15.8091 17.2103 15.7961 17.1973 15.783C17.1842 15.77 17.1712 15.757 17.1582 15.744C17.1451 15.7309 17.1321 15.7179 17.1191 15.7049C17.1061 15.6919 17.0931 15.6789 17.0801 15.6659C17.0671 15.6529 17.0541 15.6399 17.0412 15.6269C17.0282 15.614 17.0152 15.601 17.0022 15.588C16.9893 15.5751 16.9763 15.5621 16.9634 15.5492C16.9504 15.5362 16.9375 15.5233 16.9245 15.5103C16.9116 15.4974 16.8987 15.4845 16.8858 15.4715C16.8728 15.4586 16.8599 15.4457 16.847 15.4328C16.8341 15.4199 16.8212 15.407 16.8083 15.3941C16.7954 15.3812 16.7825 15.3683 16.7697 15.3555C16.7568 15.3426 16.7439 15.3297 16.7311 15.3168C16.7182 15.304 16.7053 15.2911 16.6925 15.2783C16.6796 15.2654 16.6668 15.2526 16.654 15.2397C16.6411 15.2269 16.6283 15.2141 16.6155 15.2013C16.6027 15.1884 16.5898 15.1756 16.577 15.1628C16.5642 15.15 16.5514 15.1372 16.5386 15.1244C16.5258 15.1116 16.513 15.0988 16.5003 15.086C16.4875 15.0733 16.4747 15.0605 16.4619 15.0477C16.4492 15.035 16.4364 15.0222 16.4237 15.0094C16.4109 14.9967 16.3981 14.9839 16.3854 14.9712C16.3727 14.9585 16.3599 14.9457 16.3472 14.933C16.3345 14.9203 16.3218 14.9075 16.309 14.8948C16.2963 14.8821 16.2836 14.8694 16.2709 14.8567C16.2582 14.844 16.2455 14.8313 16.2328 14.8186C16.2201 14.8059 16.2074 14.7932 16.1948 14.7806C16.1821 14.7679 16.1694 14.7552 16.1568 14.7425C16.1441 14.7299 16.1314 14.7172 16.1188 14.7046C16.1061 14.6919 16.0935 14.6793 16.0808 14.6666C16.0682 14.654 16.0556 14.6414 16.0429 14.6287C16.0303 14.6161 16.0177 14.6035 16.0051 14.5909C15.9925 14.5782 15.9798 14.5656 15.9672 14.553C15.9546 14.5404 15.942 14.5278 15.9294 14.5152C15.9169 14.5026 15.9043 14.4901 15.8917 14.4775C15.8791 14.4649 15.8665 14.4523 15.854 14.4398C15.8414 14.4272 15.8288 14.4146 15.8163 14.4021C15.8037 14.3895 15.7912 14.377 15.7786 14.3644C15.7661 14.3519 15.7535 14.3393 15.741 14.3268C15.7285 14.3143 15.7159 14.3017 15.7034 14.2892C15.6909 14.2767 15.6784 14.2642 15.6659 14.2517C15.6534 14.2392 15.6409 14.2266 15.6284 14.2141C15.6159 14.2016 15.6034 14.1891 15.5909 14.1767C15.5784 14.1642 15.5659 14.1517 15.5534 14.1392C15.5409 14.1267 15.5285 14.1143 15.516 14.1018C15.5035 14.0893 15.4911 14.0769 15.4786 14.0644C15.4662 14.0519 15.4537 14.0395 15.4413 14.027C15.4288 14.0146 15.4164 14.0022 15.4039 13.9897C15.3915 13.9773 15.3791 13.9649 15.3666 13.9524C15.3542 13.94 15.3418 13.9276 15.3294 13.9152C15.317 13.9028 15.3046 13.8903 15.2922 13.8779C15.2798 13.8655 15.2674 13.8531 15.255 13.8407C15.2426 13.8283 15.2302 13.816 15.2178 13.8036C15.2054 13.7912 15.193 13.7788 15.1806 13.7664C15.1683 13.7541 15.1559 13.7417 15.1435 13.7293C15.1312 13.717 15.1188 13.7046 15.1065 13.6922C15.0941 13.6799 15.0817 13.6675 15.0694 13.6552C15.0571 13.6428 15.0447 13.6305 15.0324 13.6182C15.02 13.6058 15.0077 13.5935 14.9954 13.5812C14.9831 13.5688 14.9707 13.5565 14.9584 13.5442C14.9461 13.5319 14.9338 13.5196 14.9215 13.5073C14.9092 13.495 14.8969 13.4826 14.8846 13.4703C14.8723 13.458 14.86 13.4458 14.8477 13.4335C14.8354 13.4212 14.8231 13.4089 14.8108 13.3966C14.7985 13.3843 14.7863 13.372 14.774 13.3598C14.7617 13.3475 14.7494 13.3352 14.7372 13.323C14.7249 13.3107 14.7127 13.2984 14.7004 13.2862C14.6881 13.2739 14.6759 13.2617 14.6636 13.2494C14.6514 13.2372 14.6391 13.2249 14.6269 13.2127C14.6147 13.2005 14.6024 13.1882 14.5902 13.176C14.578 13.1638 14.5657 13.1515 14.5535 13.1393C14.5413 13.1271 14.5291 13.1149 14.5169 13.1027C14.5047 13.0904 14.4924 13.0782 14.4802 13.066C14.468 13.0538 14.4558 13.0416 14.4436 13.0294C14.4314 13.0172 14.4192 13.005 14.407 12.9928C14.3948 12.9806 14.3827 12.9684 14.3705 12.9563C14.3583 12.9441 14.3461 12.9319 14.3339 12.9197C14.3218 12.9075 14.3096 12.8954 14.2974 12.8832C14.2852 12.871 14.2731 12.8589 14.2609 12.8467C14.2488 12.8345 14.2366 12.8224 14.2244 12.8102C14.2123 12.7981 14.2001 12.7859 14.188 12.7738C14.1758 12.7616 14.1637 12.7495 14.1516 12.7374C14.1394 12.7252 14.1273 12.7131 14.1152 12.7009C14.103 12.6888 14.0909 12.6767 14.0788 12.6646C14.0666 12.6524 14.0545 12.6403 14.0424 12.6282C14.0303 12.6161 14.0182 12.6039 14.006 12.5918C13.9939 12.5797 13.9818 12.5676 13.9697 12.5555C13.9576 12.5434 13.9455 12.5313 13.9334 12.5192C13.9213 12.5071 13.9092 12.495 13.8971 12.4829C13.885 12.4708 13.8729 12.4587 13.8608 12.4466C13.8488 12.4345 13.8367 12.4225 13.8246 12.4104C13.8125 12.3983 13.8004 12.3862 13.7883 12.3741C13.7763 12.3621 13.7642 12.35 13.7521 12.3379C13.7401 12.3258 13.728 12.3138 13.7159 12.3017C13.7039 12.2897 13.6918 12.2776 13.6797 12.2655C13.6677 12.2535 13.6556 12.2414 13.6436 12.2294C13.6315 12.2173 13.6195 12.2053 13.6074 12.1932C13.5954 12.1812 13.5833 12.1691 13.5713 12.1571C13.5593 12.145 13.5472 12.133 13.5352 12.121C13.5231 12.1089 13.5111 12.0969 13.4991 12.0849C13.487 12.0728 13.475 12.0608 13.463 12.0488C13.451 12.0367 13.4389 12.0247 13.4269 12.0127C13.4149 12.0007 13.4029 11.9887 13.3909 11.9766C13.3788 11.9646 13.3668 11.9526 13.3548 11.9406C13.3428 11.9286 13.3308 11.9166 13.3188 11.9046C13.3068 11.8926 13.2948 11.8806 13.2828 11.8686C13.2708 11.8566 13.2588 11.8446 13.2468 11.8326C13.2348 11.8206 13.2228 11.8086 13.2108 11.7966C13.1988 11.7846 13.1868 11.7726 13.1748 11.7606C13.1628 11.7486 13.1508 11.7366 13.1388 11.7246C13.1269 11.7126 13.1149 11.7007 13.1029 11.6887C13.0909 11.6767 13.0789 11.6647 13.0669 11.6527C13.055 11.6408 13.043 11.6288 13.031 11.6168C13.019 11.6048 13.0071 11.5929 12.9951 11.5809C12.9831 11.5689 12.9712 11.557 12.9592 11.545C12.9472 11.533 12.9353 11.5211 12.9233 11.5091C12.9113 11.4971 12.8994 11.4852 12.8874 11.4732C12.8755 11.4612 12.8635 11.4493 12.8515 11.4373C12.8396 11.4254 12.8276 11.4134 12.8157 11.4015C12.8037 11.3895 12.7918 11.3776 12.7798 11.3656C12.7679 11.3537 12.7559 11.3417 12.744 11.3298C12.732 11.3178 12.7201 11.3059 12.7082 11.2939C12.6962 11.282 12.6843 11.2701 12.6723 11.2581C12.6604 11.2462 12.6484 11.2342 12.6365 11.2223C12.6246 11.2104 12.6126 11.1984 12.6007 11.1865C12.5888 11.1745 12.5768 11.1626 12.5649 11.1507C12.553 11.1387 12.541 11.1268 12.5291 11.1149C12.5172 11.1029 12.5052 11.091 12.4933 11.0791C12.4814 11.0672 12.4694 11.0552 12.4575 11.0433C12.4456 11.0314 12.4337 11.0195 12.4217 11.0075C12.4098 10.9956 12.3979 10.9837 12.386 10.9718C12.3741 10.9598 12.3621 10.9479 12.3502 10.936C12.3383 10.9241 12.3264 10.9122 12.3145 10.9002C12.3025 10.8883 12.2906 10.8764 12.2787 10.8645C12.2668 10.8526 12.2549 10.8407 12.243 10.8287C12.231 10.8168 12.2191 10.8049 12.2072 10.793C12.1953 10.7811 12.1834 10.7692 12.1715 10.7573C12.1596 10.7453 12.1476 10.7334 12.1357 10.7215C12.1238 10.7096 12.1119 10.6977 12.1 10.6858C12.0881 10.6739 12.0762 10.662 12.0643 10.6501C12.0524 10.6382 12.0405 10.6262 12.0285 10.6143C12.0166 10.6024 12.0047 10.5905 11.9928 10.5786C11.9809 10.5667 11.969 10.5548 11.9571 10.5429C11.9452 10.531 11.9333 10.5191 11.9214 10.5072C11.9095 10.4953 11.8976 10.4834 11.8857 10.4715C11.8738 10.4596 11.8619 10.4476 11.85 10.4357C11.8381 10.4238 11.8261 10.4119 11.8142 10.4C11.8023 10.3881 11.7904 10.3762 11.7785 10.3643C11.7666 10.3524 11.7547 10.3405 11.7428 10.3286C11.7309 10.3167 11.719 10.3048 11.7071 10.2929C11.6952 10.281 11.6833 10.2691 11.6714 10.2572C11.6595 10.2453 11.6476 10.2334 11.6357 10.2215C11.6238 10.2096 11.6119 10.1977 11.6 10.1858C11.5881 10.1739 11.5762 10.1619 11.5643 10.15C11.5524 10.1381 11.5404 10.1262 11.5285 10.1143C11.5166 10.1024 11.5047 10.0905 11.4928 10.0786C11.4809 10.0667 11.469 10.0548 11.4571 10.0429C11.4452 10.031 11.4333 10.0191 11.4214 10.0072C11.4095 9.99527 11.3976 9.98336 11.3857 9.97145C11.3738 9.95954 11.3618 9.94764 11.3499 9.93573C11.338 9.92382 11.3261 9.91191 11.3142 9.9C11.3023 9.88809 11.2904 9.87618 11.2785 9.86427C11.2666 9.85236 11.2547 9.84044 11.2427 9.82853C11.2308 9.81662 11.2189 9.80471 11.207 9.79279C11.1951 9.78088 11.1832 9.76896 11.1713 9.75705C11.1593 9.74513 11.1474 9.73322 11.1355 9.7213C11.1236 9.70938 11.1117 9.69747 11.0998 9.68555C11.0878 9.67363 11.0759 9.66171 11.064 9.64979C11.0521 9.63787 11.0402 9.62595 11.0282 9.61402C11.0163 9.6021 11.0044 9.59018 10.9925 9.57825C10.9805 9.56633 10.9686 9.55441 10.9567 9.54248C10.9448 9.53055 10.9328 9.51863 10.9209 9.5067C10.909 9.49477 10.8971 9.48284 10.8851 9.47091C10.8732 9.45898 10.8613 9.44704 10.8493 9.43511C10.8374 9.42318 10.8255 9.41124 10.8135 9.39931C10.8016 9.38737 10.7896 9.37543 10.7777 9.3635C10.7658 9.35156 10.7538 9.33962 10.7419 9.32768C10.7299 9.31574 10.718 9.30379 10.7061 9.29185C10.6941 9.27991 10.6822 9.26796 10.6702 9.25601C10.6583 9.24407 10.6463 9.23212 10.6344 9.22017C10.6224 9.20822 10.6105 9.19627 10.5985 9.18431C10.5866 9.17236 10.5746 9.16041 10.5627 9.14845C10.5507 9.13649 10.5388 9.12454 10.5268 9.11258C10.5148 9.10062 10.5029 9.08866 10.4909 9.07669C10.4789 9.06473 10.467 9.05277 10.455 9.0408C10.443 9.02883 10.4311 9.01686 10.4191 9.00489C10.4071 8.99292 10.3952 8.98095 10.3832 8.96898C10.3712 8.95701 10.3592 8.94503 10.3473 8.93305C10.3353 8.92107 10.3233 8.90909 10.3113 8.89711C10.2993 8.88513 10.2874 8.87315 10.2754 8.86116C10.2634 8.84918 10.2514 8.83719 10.2394 8.8252C10.2274 8.81321 10.2154 8.80122 10.2034 8.78922C10.1914 8.77723 10.1794 8.76523 10.1674 8.75323C10.1554 8.74124 10.1434 8.72924 10.1314 8.71723C10.1194 8.70523 10.1074 8.69323 10.0954 8.68122C10.0834 8.66921 10.0714 8.6572 10.0594 8.64519C10.0474 8.63318 10.0354 8.62116 10.0234 8.60915C10.0113 8.59713 9.99932 8.58511 9.9873 8.57309C9.97528 8.56107 9.96326 8.54904 9.95123 8.53702C9.9392 8.52499 9.92717 8.51296 9.91514 8.50093C9.90311 8.4889 9.89108 8.47686 9.87904 8.46483C9.867 8.45279 9.85496 8.44075 9.84292 8.42871C9.83088 8.41667 9.81883 8.40462 9.80679 8.39257C9.79474 8.38053 9.78269 8.36848 9.77064 8.35642C9.75858 8.34437 9.74653 8.33231 9.73447 8.32026C9.72241 8.3082 9.71035 8.29614 9.69828 8.28407C9.68622 8.27201 9.67415 8.25994 9.66208 8.24787C9.65001 8.2358 9.63794 8.22373 9.62587 8.21165C9.61379 8.19958 9.60171 8.1875 9.58963 8.17542C9.57755 8.16333 9.56546 8.15125 9.55337 8.13916C9.54129 8.12707 9.5292 8.11498 9.5171 8.10289C9.50501 8.09079 9.49291 8.0787 9.48081 8.0666C9.46871 8.0545 9.45661 8.04239 9.4445 8.03029C9.43239 8.01818 9.42028 8.00607 9.40817 7.99396C9.39606 7.98184 9.38394 7.96973 9.37182 7.95761C9.3597 7.94549 9.34758 7.93336 9.33545 7.92124C9.32332 7.90911 9.31119 7.89698 9.29906 7.88485C9.28693 7.87271 9.27479 7.86058 9.26265 7.84844C9.25051 7.8363 9.23837 7.82415 9.22622 7.812C9.21407 7.79986 9.20192 7.78771 9.18977 7.77555C9.17761 7.7634 9.16545 7.75124 9.15329 7.73908C9.14113 7.72692 9.12896 7.71475 9.1168 7.70258C9.10463 7.69041 9.09245 7.67824 9.08028 7.66606C9.0681 7.65389 9.05592 7.64171 9.04374 7.62952C9.03155 7.61734 9.01937 7.60515 9.00718 7.59296C8.99498 7.58077 8.98279 7.56857 8.97059 7.55638C8.95839 7.54418 8.94619 7.53197 8.93398 7.51977C8.92177 7.50756 8.90956 7.49535 8.89735 7.48313C8.88513 7.47092 8.87291 7.4587 8.86069 7.44648C8.84847 7.43425 8.83624 7.42203 8.82401 7.4098C8.81178 7.39756 8.79954 7.38533 8.7873 7.37309C8.77506 7.36085 8.76282 7.34861 8.75057 7.33636C8.73833 7.32411 8.72607 7.31186 8.71382 7.2996C8.70156 7.28735 8.6893 7.27509 8.67704 7.26282C8.66477 7.25056 8.6525 7.23829 8.64023 7.22602C8.62796 7.21374 8.61568 7.20147 8.6034 7.18918C8.59112 7.1769 8.57883 7.16462 8.56654 7.15232C8.55425 7.14003 8.54195 7.12774 8.52965 7.11544C8.51735 7.10314 8.50505 7.09083 8.49274 7.07853C8.48043 7.06622 8.46812 7.0539 8.4558 7.04159C8.44348 7.02927 8.43116 7.01694 8.41883 7.00462C8.4065 6.99229 8.39417 6.97996 8.38184 6.96762C8.3695 6.95529 8.35716 6.94294 8.34481 6.9306C8.33247 6.91825 8.32011 6.9059 8.30776 6.89355C8.2954 6.88119 8.28304 6.86883 8.27068 6.85646C8.25831 6.8441 8.24594 6.83173 8.23357 6.81935C8.22119 6.80698 8.20881 6.7946 8.19643 6.78221C8.18404 6.76983 8.17165 6.75744 8.15926 6.74504C8.14686 6.73265 8.13446 6.72025 8.12206 6.70784C8.10965 6.69544 8.09724 6.68303 8.08483 6.67061C8.07241 6.6582 8.05999 6.64578 8.04757 6.63335C8.03514 6.62093 8.02271 6.6085 8.01027 6.59606C7.99784 6.58363 7.9854 6.57118 7.97295 6.55874C7.96051 6.54629 7.94805 6.53384 7.9356 6.52138C7.92314 6.50893 7.91068 6.49646 7.89821 6.484C7.88574 6.47153 7.87327 6.45906 7.86079 6.44658C7.84831 6.4341 7.83583 6.42162 7.82334 6.40913C7.81085 6.39664 7.79836 6.38414 7.78586 6.37164C7.77336 6.35914 7.76085 6.34664 7.74834 6.33412C7.73583 6.32161 7.72331 6.3091 7.71079 6.29657C7.69827 6.28405 7.68574 6.27152 7.6732 6.25899C7.66067 6.24646 7.64813 6.23392 7.63558 6.22137C7.62304 6.20883 7.61049 6.19627 7.59793 6.18372C7.58538 6.17116 7.57281 6.1586 7.56024 6.14603C7.54768 6.13346 7.5351 6.12089 7.52252 6.10831C7.50994 6.09573 7.49736 6.08314 7.48476 6.07055C7.47217 6.05796 7.45957 6.04536 7.44697 6.03276C7.43437 6.02015 7.42176 6.00754 7.40914 5.99493C7.39653 5.98231 7.3839 5.96969 7.37128 5.95706C7.35865 5.94443 7.34601 5.9318 7.33337 5.91916C7.32073 5.90652 7.30809 5.89387 7.29543 5.88122C7.28278 5.86857 7.27012 5.85591 7.25746 5.84324C7.24479 5.83058 7.23212 5.81791 7.21945 5.80523C7.20677 5.79255 7.19408 5.77987 7.18139 5.76718C7.1687 5.75449 7.15601 5.74179 7.1433 5.72909C7.1306 5.71639 7.11789 5.70368 7.10518 5.69096C7.09246 5.67825 7.07974 5.66553 7.06701 5.6528C7.05428 5.64007 7.04155 5.62733 7.02881 5.61459C7.01606 5.60185 7.00332 5.5891 6.99056 5.57635C6.97781 5.56359 6.96505 5.55083 6.95228 5.53806C6.93951 5.5253 6.92673 5.51252 6.91395 5.49974C6.90117 5.48696 6.88838 5.47417 6.87559 5.46138C6.86279 5.44858 6.84999 5.43578 6.83718 5.42297C6.82438 5.41016 6.81156 5.39735 6.79874 5.38453C6.78592 5.3717 6.77309 5.35888 6.76025 5.34604C6.74742 5.3332 6.73457 5.32036 6.72173 5.30751C6.70888 5.29466 6.69602 5.28181 6.68316 5.26894C6.67029 5.25608 6.65742 5.24321 6.64454 5.23033C6.63167 5.21745 6.61878 5.20457 6.60589 5.19168C6.593 5.17878 6.5801 5.16589 6.56719 5.15298C6.55429 5.14007 6.54137 5.12716 6.52845 5.11424C6.51553 5.10132 6.50261 5.08839 6.48967 5.07546C6.47674 5.06252 6.46379 5.04958 6.45084 5.03663C6.43789 5.02368 6.42494 5.01072 6.41197 4.99776C6.39901 4.9848 6.38604 4.97182 6.37306 4.95885C6.36008 4.94587 6.34709 4.93288 6.3341 4.91989C6.32111 4.90689 6.30811 4.89389 6.2951 4.88088C6.28209 4.86787 6.26907 4.85486 6.25605 4.84183C6.24302 4.82881 6.22999 4.81578 6.21695 4.80274C6.20391 4.7897 6.19087 4.77665 6.17781 4.7636C6.16476 4.75055 6.1517 4.73748 6.13863 4.72441C6.12556 4.71134 6.11248 4.69827 6.0994 4.68518C6.08631 4.6721 6.07322 4.659 6.06012 4.6459C6.04702 4.6328 6.03391 4.61969 6.02079 4.60658C6.00767 4.59346 5.99455 4.58034 5.98142 4.5672C5.96829 4.55407 5.95515 4.54093 5.942 4.52778C5.92885 4.51464 5.91569 4.50148 5.90253 4.48831C5.88936 4.47515 5.87619 4.46198 5.86301 4.4488C5.84983 4.43562 5.83664 4.42243 5.82345 4.40923C5.81025 4.39604 5.79705 4.38283 5.78383 4.36962C5.77062 4.35641 5.7574 4.34319 5.74417 4.32996C5.73094 4.31673 5.7177 4.30349 5.70446 4.29024C5.69121 4.277 5.67796 4.26374 5.66469 4.25048C5.65143 4.23722 5.63816 4.22395 5.62488 4.21067C5.6116 4.19739 5.59832 4.1841 5.58502 4.17081C5.57172 4.15751 5.55842 4.14421 5.54511 4.13089C5.53179 4.11758 5.51847 4.10426 5.50514 4.09093C5.49181 4.0776 5.47847 4.06426 5.46513 4.05091C5.45178 4.03757 5.43843 4.02421 5.42506 4.01085C5.4117 3.99748 5.39832 3.98411 5.38494 3.97073C5.37156 3.95735 5.35817 3.94396 5.34477 3.93056C5.33137 3.91716 5.31796 3.90375 5.30455 3.89033C5.29113 3.87692 5.27771 3.86349 5.26427 3.85006C5.25084 3.83662 5.2374 3.82318 5.22394 3.80973C5.21049 3.79628 5.19703 3.78282 5.18356 3.76935C5.17009 3.75588 5.15661 3.7424 5.14312 3.72891C5.12964 3.71542 5.11614 3.70193 5.10263 3.68842C5.08913 3.67492 5.07561 3.6614 5.06209 3.64788C5.04857 3.63435 5.03503 3.62082 5.02149 3.60728C5.00795 3.59374 4.9944 3.58018 4.98084 3.56662C4.96728 3.55306 4.95371 3.53949 4.94013 3.52591C4.92655 3.51233 4.91296 3.49875 4.89936 3.48515C4.88577 3.47155 4.87216 3.45794 4.85854 3.44433C4.84493 3.43071 4.8313 3.41709 4.81767 3.40345C4.80403 3.38982 4.79039 3.37617 4.77673 3.36252C4.76308 3.34886 4.74942 3.3352 4.73574 3.32153C4.72207 3.30786 4.70839 3.29417 4.6947 3.28048C4.681 3.26679 4.6673 3.25309 4.65359 3.23938C4.63988 3.22567 4.62616 3.21195 4.61243 3.19822C4.5987 3.18448 4.58496 3.17074 4.57121 3.157C4.55746 3.14325 4.5437 3.12949 4.52993 3.11572C4.51616 3.10195 4.50238 3.08817 4.48859 3.07438C4.4748 3.06059 4.46101 3.04679 4.4472 3.03298C4.43339 3.01918 4.41957 3.00536 4.40574 2.99153C4.39191 2.9777 4.37808 2.96386 4.36423 2.95001C4.35038 2.93617 4.33652 2.92231 4.32265 2.90844C4.30879 2.89457 4.29491 2.88069 4.28102 2.86681C4.26713 2.85292 4.25323 2.83902 4.23932 2.82511C4.22542 2.8112 4.2115 2.79728 4.19757 2.78335C4.18364 2.76943 4.1697 2.75549 4.15575 2.74154C4.1418 2.72759 4.12784 2.71363 4.11387 2.69966C4.0999 2.68569 4.08592 2.67171 4.07193 2.65772C4.05794 2.64373 4.04394 2.62973 4.02993 2.61572C4.01592 2.60171 4.0019 2.58769 3.98787 2.57365C3.97384 2.55962 3.95979 2.54558 3.94574 2.53153C3.93169 2.51748 3.91763 2.50341 3.90355 2.48934C3.88948 2.47526 3.87539 2.46118 3.8613 2.44709C3.8472 2.43299 3.8331 2.41889 3.81898 2.40477C3.80487 2.39065 3.79074 2.37653 3.7766 2.36239C3.76247 2.34825 3.74832 2.3341 3.73416 2.31995C3.72 2.30579 3.70583 2.29162 3.69165 2.27744C3.67747 2.26326 3.66328 2.24907 3.64908 2.23486C3.63487 2.22066 3.62066 2.20645 3.60644 2.19222C3.59221 2.178 3.57798 2.16377 3.56373 2.14952C3.54949 2.13528 3.53523 2.12102 3.52097 2.10675C3.5067 2.09248 3.49242 2.07821 3.47813 2.06392C3.46384 2.04963 3.44954 2.03533 3.43523 2.02101C3.42092 2.0067 3.40659 1.99238 3.39226 1.97805C3.37793 1.96371 3.36358 1.94937 3.34923 1.93501C3.33487 1.92066 3.3205 1.90629 3.30612 1.89191C3.29174 1.87753 3.27735 1.86314 3.26295 1.84874C3.24855 1.83434 3.23414 1.81993 3.21972 1.8055C3.20529 1.79108 3.19086 1.77664 3.17641 1.7622C3.16196 1.74775 3.14751 1.73329 3.13304 1.71882C3.11857 1.70435 3.10409 1.68987 3.08959 1.67538C3.0751 1.66089 3.0606 1.64638 3.04608 1.63187C3.03157 1.61735 3.01704 1.60283 3.0025 1.58829C2.98796 1.57375 2.97341 1.5592 2.95885 1.54464C2.94429 1.53007 2.92971 1.5155 2.91513 1.50092C2.90054 1.48633 2.88595 1.47173 2.87134 1.45712C2.85673 1.44252 2.84211 1.42789 2.82748 1.41326C2.81284 1.39863 2.7982 1.38399 2.78354 1.36933C2.76889 1.35467 2.75422 1.34001 2.73954 1.32533C2.72486 1.31065 2.71017 1.29596 2.69547 1.28125C2.68076 1.26655 2.66605 1.25183 2.65132 1.2371C2.63659 1.22238 2.62185 1.20764 2.6071 1.19289C2.59235 1.17813 2.57758 1.16337 2.56281 1.14859C2.54803 1.13382 2.53324 1.11903 2.51844 1.10423C2.50364 1.08943 2.48883 1.07462 2.47401 1.05979C2.45918 1.04497 2.44435 1.03013 2.4295 1.01528C2.41465 1.00043 2.39979 0.985572 2.38491 0.970699C2.37004 0.955825 2.35515 0.940939 2.34025 0.926041C2.32536 0.911142 2.31045 0.896231 2.29552 0.881308C2.2806 0.866385 2.26566 0.85145 2.25072 0.836501C2.23577 0.821553 2.22081 0.806593 2.20583 0.79162C2.19086 0.776647 2.17587 0.761661 2.16088 0.746663C2.14588 0.731665 2.13087 0.716654 2.11584 0.701631C2.10082 0.686607 2.08578 0.671571 2.07074 0.656523C2.05569 0.641474 2.04063 0.626413 2.02555 0.611338C2.01048 0.596264 1.99539 0.581178 1.98029 0.566078C1.96519 0.550978 1.95008 0.535866 1.93495 0.520741C1.91983 0.505615 1.90469 0.490477 1.88954 0.475326C1.87439 0.460175 1.85923 0.445012 1.84405 0.429835C1.82887 0.414658 1.81368 0.399468 1.79848 0.384266C1.78328 0.369063 1.76806 0.353847 1.75283 0.338619C1.7376 0.32339 1.72236 0.308148 1.70711 0.292893L0.292893 1.70711C0.308148 1.72236 0.32339 1.7376 0.338619 1.75283C0.353847 1.76806 0.369063 1.78328 0.384266 1.79848C0.399468 1.81368 0.414658 1.82887 0.429835 1.84405C0.445012 1.85923 0.460175 1.87439 0.475326 1.88954C0.490477 1.90469 0.505615 1.91983 0.520741 1.93495C0.535866 1.95008 0.550978 1.96519 0.566078 1.98029C0.581178 1.99539 0.596264 2.01048 0.611338 2.02555C0.626413 2.04063 0.641474 2.05569 0.656523 2.07074C0.671571 2.08578 0.686607 2.10082 0.701631 2.11584C0.716654 2.13087 0.731665 2.14588 0.746663 2.16088C0.761661 2.17587 0.776647 2.19086 0.79162 2.20583C0.806593 2.22081 0.821553 2.23577 0.836501 2.25072C0.85145 2.26566 0.866385 2.2806 0.881308 2.29552C0.896231 2.31045 0.911142 2.32536 0.926041 2.34025C0.940939 2.35515 0.955825 2.37004 0.970699 2.38491C0.985572 2.39979 1.00043 2.41465 1.01528 2.4295C1.03013 2.44435 1.04497 2.45918 1.05979 2.47401C1.07462 2.48883 1.08943 2.50364 1.10423 2.51844C1.11903 2.53324 1.13382 2.54803 1.14859 2.56281C1.16337 2.57758 1.17813 2.59235 1.19289 2.6071C1.20764 2.62185 1.22238 2.63659 1.2371 2.65132C1.25183 2.66605 1.26655 2.68076 1.28125 2.69547C1.29596 2.71017 1.31065 2.72486 1.32533 2.73954C1.34001 2.75422 1.35467 2.76889 1.36933 2.78354C1.38399 2.7982 1.39863 2.81284 1.41326 2.82748C1.42789 2.84211 1.44252 2.85673 1.45712 2.87134C1.47173 2.88595 1.48633 2.90054 1.50092 2.91513C1.5155 2.92971 1.53007 2.94429 1.54464 2.95885C1.5592 2.97341 1.57375 2.98796 1.58829 3.0025C1.60283 3.01704 1.61735 3.03157 1.63187 3.04608C1.64638 3.0606 1.66089 3.0751 1.67538 3.08959C1.68987 3.10409 1.70435 3.11857 1.71882 3.13304C1.73329 3.14751 1.74775 3.16196 1.7622 3.17641C1.77664 3.19086 1.79108 3.20529 1.8055 3.21972C1.81993 3.23414 1.83434 3.24855 1.84874 3.26295C1.86314 3.27735 1.87753 3.29174 1.89191 3.30612C1.90629 3.3205 1.92066 3.33487 1.93501 3.34923C1.94937 3.36358 1.96371 3.37793 1.97805 3.39226C1.99238 3.40659 2.0067 3.42092 2.02101 3.43523C2.03533 3.44954 2.04963 3.46384 2.06392 3.47813C2.07821 3.49242 2.09248 3.5067 2.10675 3.52097C2.12102 3.53523 2.13528 3.54949 2.14952 3.56373C2.16377 3.57798 2.178 3.59221 2.19222 3.60644C2.20645 3.62066 2.22066 3.63487 2.23486 3.64908C2.24907 3.66328 2.26326 3.67747 2.27744 3.69165C2.29162 3.70583 2.30579 3.72 2.31995 3.73416C2.3341 3.74832 2.34825 3.76247 2.36239 3.7766C2.37653 3.79074 2.39065 3.80487 2.40477 3.81898C2.41889 3.8331 2.43299 3.8472 2.44709 3.8613C2.46118 3.87539 2.47526 3.88948 2.48934 3.90355C2.50341 3.91763 2.51748 3.93169 2.53153 3.94574C2.54558 3.95979 2.55962 3.97384 2.57365 3.98787C2.58769 4.0019 2.60171 4.01592 2.61572 4.02993C2.62973 4.04394 2.64373 4.05794 2.65772 4.07193C2.67171 4.08592 2.68569 4.0999 2.69966 4.11387C2.71363 4.12784 2.72759 4.1418 2.74154 4.15575C2.75549 4.1697 2.76943 4.18364 2.78335 4.19757C2.79728 4.2115 2.8112 4.22542 2.82511 4.23932C2.83902 4.25323 2.85292 4.26713 2.86681 4.28102C2.88069 4.29491 2.89457 4.30879 2.90844 4.32265C2.92231 4.33652 2.93617 4.35038 2.95001 4.36423C2.96386 4.37808 2.9777 4.39191 2.99153 4.40574C3.00536 4.41957 3.01918 4.43339 3.03298 4.4472C3.04679 4.46101 3.06059 4.4748 3.07438 4.48859C3.08817 4.50238 3.10195 4.51616 3.11572 4.52993C3.12949 4.5437 3.14325 4.55746 3.157 4.57121C3.17074 4.58496 3.18448 4.5987 3.19822 4.61243C3.21195 4.62616 3.22567 4.63988 3.23938 4.65359C3.25309 4.6673 3.26679 4.681 3.28048 4.6947C3.29417 4.70839 3.30786 4.72207 3.32153 4.73574C3.3352 4.74942 3.34886 4.76308 3.36252 4.77673C3.37617 4.79039 3.38982 4.80403 3.40345 4.81767C3.41709 4.8313 3.43071 4.84493 3.44433 4.85854C3.45794 4.87216 3.47155 4.88577 3.48515 4.89936C3.49875 4.91296 3.51233 4.92655 3.52591 4.94013C3.53949 4.95371 3.55306 4.96728 3.56662 4.98084C3.58018 4.9944 3.59374 5.00795 3.60728 5.02149C3.62082 5.03503 3.63435 5.04857 3.64788 5.06209C3.6614 5.07561 3.67492 5.08913 3.68842 5.10263C3.70193 5.11614 3.71542 5.12964 3.72891 5.14312C3.7424 5.15661 3.75588 5.17009 3.76935 5.18356C3.78282 5.19703 3.79628 5.21049 3.80973 5.22394C3.82318 5.2374 3.83662 5.25084 3.85006 5.26427C3.86349 5.27771 3.87692 5.29113 3.89033 5.30455C3.90375 5.31796 3.91716 5.33137 3.93056 5.34477C3.94396 5.35817 3.95735 5.37156 3.97073 5.38494C3.98411 5.39832 3.99748 5.4117 4.01085 5.42506C4.02421 5.43843 4.03757 5.45178 4.05091 5.46513C4.06426 5.47847 4.0776 5.49181 4.09093 5.50514C4.10426 5.51847 4.11758 5.53179 4.13089 5.54511C4.14421 5.55842 4.15751 5.57172 4.17081 5.58502C4.1841 5.59832 4.19739 5.6116 4.21067 5.62488C4.22395 5.63816 4.23722 5.65143 4.25048 5.66469C4.26374 5.67796 4.277 5.69121 4.29024 5.70446C4.30349 5.7177 4.31673 5.73094 4.32996 5.74417C4.34319 5.7574 4.35641 5.77062 4.36962 5.78383C4.38283 5.79705 4.39604 5.81025 4.40923 5.82345C4.42243 5.83664 4.43562 5.84983 4.4488 5.86301C4.46198 5.87619 4.47515 5.88936 4.48831 5.90253C4.50148 5.91569 4.51464 5.92885 4.52778 5.942C4.54093 5.95515 4.55407 5.96829 4.5672 5.98142C4.58034 5.99455 4.59346 6.00767 4.60658 6.02079C4.61969 6.03391 4.6328 6.04702 4.6459 6.06012C4.659 6.07322 4.6721 6.08631 4.68518 6.0994C4.69827 6.11248 4.71134 6.12556 4.72441 6.13863C4.73748 6.1517 4.75055 6.16476 4.7636 6.17781C4.77665 6.19087 4.7897 6.20391 4.80274 6.21695C4.81578 6.22999 4.82881 6.24302 4.84183 6.25605C4.85486 6.26907 4.86787 6.28209 4.88088 6.2951C4.89389 6.30811 4.90689 6.32111 4.91989 6.3341C4.93288 6.34709 4.94587 6.36008 4.95885 6.37306C4.97182 6.38604 4.9848 6.39901 4.99776 6.41197C5.01072 6.42494 5.02368 6.43789 5.03663 6.45084C5.04958 6.46379 5.06252 6.47674 5.07546 6.48967C5.08839 6.50261 5.10132 6.51553 5.11424 6.52845C5.12716 6.54137 5.14007 6.55429 5.15298 6.56719C5.16589 6.5801 5.17878 6.593 5.19168 6.60589C5.20457 6.61878 5.21745 6.63167 5.23033 6.64454C5.24321 6.65742 5.25608 6.67029 5.26894 6.68316C5.28181 6.69602 5.29466 6.70888 5.30751 6.72173C5.32036 6.73457 5.3332 6.74742 5.34604 6.76025C5.35888 6.77309 5.3717 6.78592 5.38453 6.79874C5.39735 6.81156 5.41016 6.82438 5.42297 6.83718C5.43578 6.84999 5.44858 6.86279 5.46138 6.87559C5.47417 6.88838 5.48696 6.90117 5.49974 6.91395C5.51252 6.92673 5.5253 6.93951 5.53806 6.95228C5.55083 6.96505 5.56359 6.97781 5.57635 6.99056C5.5891 7.00332 5.60185 7.01606 5.61459 7.02881C5.62733 7.04155 5.64007 7.05428 5.6528 7.06701C5.66553 7.07974 5.67825 7.09246 5.69096 7.10518C5.70368 7.11789 5.71639 7.1306 5.72909 7.1433C5.74179 7.15601 5.75449 7.1687 5.76718 7.18139C5.77987 7.19408 5.79255 7.20677 5.80523 7.21945C5.81791 7.23212 5.83058 7.24479 5.84324 7.25746C5.85591 7.27012 5.86857 7.28278 5.88122 7.29543C5.89387 7.30809 5.90652 7.32073 5.91916 7.33337C5.9318 7.34601 5.94443 7.35865 5.95706 7.37128C5.96969 7.3839 5.98231 7.39653 5.99493 7.40914C6.00754 7.42176 6.02015 7.43437 6.03276 7.44697C6.04536 7.45957 6.05796 7.47217 6.07055 7.48476C6.08314 7.49736 6.09573 7.50994 6.10831 7.52252C6.12089 7.5351 6.13346 7.54768 6.14603 7.56024C6.1586 7.57281 6.17116 7.58538 6.18372 7.59793C6.19627 7.61049 6.20883 7.62304 6.22137 7.63558C6.23392 7.64813 6.24646 7.66067 6.25899 7.6732C6.27152 7.68574 6.28405 7.69827 6.29657 7.71079C6.3091 7.72331 6.32161 7.73583 6.33412 7.74834C6.34664 7.76085 6.35914 7.77336 6.37164 7.78586C6.38414 7.79836 6.39664 7.81085 6.40913 7.82334C6.42162 7.83583 6.4341 7.84831 6.44658 7.86079C6.45906 7.87327 6.47153 7.88574 6.484 7.89821C6.49646 7.91068 6.50893 7.92314 6.52138 7.9356C6.53384 7.94805 6.54629 7.96051 6.55874 7.97295C6.57118 7.9854 6.58363 7.99784 6.59606 8.01027C6.6085 8.02271 6.62093 8.03514 6.63335 8.04757C6.64578 8.05999 6.6582 8.07241 6.67061 8.08483C6.68303 8.09724 6.69544 8.10965 6.70784 8.12206C6.72025 8.13446 6.73265 8.14686 6.74504 8.15926C6.75744 8.17165 6.76983 8.18404 6.78221 8.19643C6.7946 8.20881 6.80698 8.22119 6.81935 8.23357C6.83173 8.24594 6.8441 8.25831 6.85646 8.27068C6.86883 8.28304 6.88119 8.2954 6.89355 8.30776C6.9059 8.32011 6.91825 8.33247 6.9306 8.34481C6.94294 8.35716 6.95529 8.3695 6.96762 8.38184C6.97996 8.39417 6.99229 8.4065 7.00462 8.41883C7.01694 8.43116 7.02927 8.44348 7.04159 8.4558C7.0539 8.46812 7.06622 8.48043 7.07853 8.49274C7.09083 8.50505 7.10314 8.51735 7.11544 8.52965C7.12774 8.54195 7.14003 8.55425 7.15232 8.56654C7.16462 8.57883 7.1769 8.59112 7.18918 8.6034C7.20147 8.61568 7.21374 8.62796 7.22602 8.64023C7.23829 8.6525 7.25056 8.66477 7.26282 8.67704C7.27509 8.6893 7.28735 8.70156 7.2996 8.71382C7.31186 8.72607 7.32411 8.73833 7.33636 8.75057C7.34861 8.76282 7.36085 8.77506 7.37309 8.7873C7.38533 8.79954 7.39756 8.81178 7.4098 8.82401C7.42203 8.83624 7.43425 8.84847 7.44648 8.86069C7.4587 8.87291 7.47092 8.88513 7.48313 8.89735C7.49535 8.90956 7.50756 8.92177 7.51977 8.93398C7.53197 8.94619 7.54418 8.95839 7.55638 8.97059C7.56857 8.98279 7.58077 8.99498 7.59296 9.00718C7.60515 9.01937 7.61734 9.03155 7.62952 9.04374C7.64171 9.05592 7.65389 9.0681 7.66606 9.08028C7.67824 9.09245 7.69041 9.10463 7.70258 9.1168C7.71475 9.12896 7.72692 9.14113 7.73908 9.15329C7.75124 9.16545 7.7634 9.17761 7.77555 9.18977C7.78771 9.20192 7.79986 9.21407 7.812 9.22622C7.82415 9.23837 7.8363 9.25051 7.84844 9.26265C7.86058 9.27479 7.87271 9.28693 7.88485 9.29906C7.89698 9.31119 7.90911 9.32332 7.92124 9.33545C7.93336 9.34758 7.94549 9.3597 7.95761 9.37182C7.96973 9.38394 7.98184 9.39606 7.99396 9.40817C8.00607 9.42028 8.01818 9.43239 8.03029 9.4445C8.04239 9.45661 8.0545 9.46871 8.0666 9.48081C8.0787 9.49291 8.09079 9.50501 8.10289 9.5171C8.11498 9.5292 8.12707 9.54129 8.13916 9.55337C8.15125 9.56546 8.16333 9.57755 8.17542 9.58963C8.1875 9.60171 8.19958 9.61379 8.21165 9.62587C8.22373 9.63794 8.2358 9.65001 8.24787 9.66208C8.25994 9.67415 8.27201 9.68622 8.28407 9.69828C8.29614 9.71035 8.3082 9.72241 8.32026 9.73447C8.33231 9.74653 8.34437 9.75858 8.35642 9.77064C8.36848 9.78269 8.38053 9.79474 8.39257 9.80679C8.40462 9.81883 8.41667 9.83088 8.42871 9.84292C8.44075 9.85496 8.45279 9.867 8.46483 9.87904C8.47686 9.89108 8.4889 9.90311 8.50093 9.91514C8.51296 9.92717 8.52499 9.9392 8.53702 9.95123C8.54904 9.96326 8.56107 9.97528 8.57309 9.9873C8.58511 9.99932 8.59713 10.0113 8.60915 10.0234C8.62116 10.0354 8.63318 10.0474 8.64519 10.0594C8.6572 10.0714 8.66921 10.0834 8.68122 10.0954C8.69323 10.1074 8.70523 10.1194 8.71723 10.1314C8.72924 10.1434 8.74124 10.1554 8.75323 10.1674C8.76523 10.1794 8.77723 10.1914 8.78922 10.2034C8.80122 10.2154 8.81321 10.2274 8.8252 10.2394C8.83719 10.2514 8.84918 10.2634 8.86116 10.2754C8.87315 10.2874 8.88513 10.2993 8.89711 10.3113C8.90909 10.3233 8.92107 10.3353 8.93305 10.3473C8.94503 10.3592 8.95701 10.3712 8.96898 10.3832C8.98095 10.3952 8.99292 10.4071 9.00489 10.4191C9.01686 10.4311 9.02883 10.443 9.0408 10.455C9.05277 10.467 9.06473 10.4789 9.07669 10.4909C9.08866 10.5029 9.10062 10.5148 9.11258 10.5268C9.12454 10.5388 9.13649 10.5507 9.14845 10.5627C9.16041 10.5746 9.17236 10.5866 9.18431 10.5985C9.19627 10.6105 9.20822 10.6224 9.22017 10.6344C9.23212 10.6463 9.24407 10.6583 9.25601 10.6702C9.26796 10.6822 9.27991 10.6941 9.29185 10.7061C9.30379 10.718 9.31574 10.7299 9.32768 10.7419C9.33962 10.7538 9.35156 10.7658 9.3635 10.7777C9.37543 10.7896 9.38737 10.8016 9.39931 10.8135C9.41124 10.8255 9.42318 10.8374 9.43511 10.8493C9.44704 10.8613 9.45898 10.8732 9.47091 10.8851C9.48284 10.8971 9.49477 10.909 9.5067 10.9209C9.51863 10.9328 9.53055 10.9448 9.54248 10.9567C9.55441 10.9686 9.56633 10.9805 9.57825 10.9925C9.59018 11.0044 9.6021 11.0163 9.61402 11.0282C9.62595 11.0402 9.63787 11.0521 9.64979 11.064C9.66171 11.0759 9.67363 11.0878 9.68555 11.0998C9.69747 11.1117 9.70938 11.1236 9.7213 11.1355C9.73322 11.1474 9.74513 11.1593 9.75705 11.1713C9.76896 11.1832 9.78088 11.1951 9.79279 11.207C9.80471 11.2189 9.81662 11.2308 9.82853 11.2427C9.84044 11.2547 9.85236 11.2666 9.86427 11.2785C9.87618 11.2904 9.88809 11.3023 9.9 11.3142C9.91191 11.3261 9.92382 11.338 9.93573 11.3499C9.94764 11.3618 9.95954 11.3738 9.97145 11.3857C9.98336 11.3976 9.99527 11.4095 10.0072 11.4214C10.0191 11.4333 10.031 11.4452 10.0429 11.4571C10.0548 11.469 10.0667 11.4809 10.0786 11.4928C10.0905 11.5047 10.1024 11.5166 10.1143 11.5285C10.1262 11.5404 10.1381 11.5524 10.15 11.5643C10.1619 11.5762 10.1739 11.5881 10.1858 11.6C10.1977 11.6119 10.2096 11.6238 10.2215 11.6357C10.2334 11.6476 10.2453 11.6595 10.2572 11.6714C10.2691 11.6833 10.281 11.6952 10.2929 11.7071C10.3048 11.719 10.3167 11.7309 10.3286 11.7428C10.3405 11.7547 10.3524 11.7666 10.3643 11.7785C10.3762 11.7904 10.3881 11.8023 10.4 11.8142C10.4119 11.8261 10.4238 11.8381 10.4357 11.85C10.4476 11.8619 10.4596 11.8738 10.4715 11.8857C10.4834 11.8976 10.4953 11.9095 10.5072 11.9214C10.5191 11.9333 10.531 11.9452 10.5429 11.9571C10.5548 11.969 10.5667 11.9809 10.5786 11.9928C10.5905 12.0047 10.6024 12.0166 10.6143 12.0285C10.6262 12.0405 10.6382 12.0524 10.6501 12.0643C10.662 12.0762 10.6739 12.0881 10.6858 12.1C10.6977 12.1119 10.7096 12.1238 10.7215 12.1357C10.7334 12.1476 10.7453 12.1596 10.7573 12.1715C10.7692 12.1834 10.7811 12.1953 10.793 12.2072C10.8049 12.2191 10.8168 12.231 10.8287 12.243C10.8407 12.2549 10.8526 12.2668 10.8645 12.2787C10.8764 12.2906 10.8883 12.3025 10.9002 12.3145C10.9122 12.3264 10.9241 12.3383 10.936 12.3502C10.9479 12.3621 10.9598 12.3741 10.9718 12.386C10.9837 12.3979 10.9956 12.4098 11.0075 12.4217C11.0195 12.4337 11.0314 12.4456 11.0433 12.4575C11.0552 12.4694 11.0672 12.4814 11.0791 12.4933C11.091 12.5052 11.1029 12.5172 11.1149 12.5291C11.1268 12.541 11.1387 12.553 11.1507 12.5649C11.1626 12.5768 11.1745 12.5888 11.1865 12.6007C11.1984 12.6126 11.2104 12.6246 11.2223 12.6365C11.2342 12.6484 11.2462 12.6604 11.2581 12.6723C11.2701 12.6843 11.282 12.6962 11.2939 12.7082C11.3059 12.7201 11.3178 12.732 11.3298 12.744C11.3417 12.7559 11.3537 12.7679 11.3656 12.7798C11.3776 12.7918 11.3895 12.8037 11.4015 12.8157C11.4134 12.8276 11.4254 12.8396 11.4373 12.8515C11.4493 12.8635 11.4612 12.8755 11.4732 12.8874C11.4852 12.8994 11.4971 12.9113 11.5091 12.9233C11.5211 12.9353 11.533 12.9472 11.545 12.9592C11.557 12.9712 11.5689 12.9831 11.5809 12.9951C11.5929 13.0071 11.6048 13.019 11.6168 13.031C11.6288 13.043 11.6408 13.055 11.6527 13.0669C11.6647 13.0789 11.6767 13.0909 11.6887 13.1029C11.7007 13.1149 11.7126 13.1269 11.7246 13.1388C11.7366 13.1508 11.7486 13.1628 11.7606 13.1748C11.7726 13.1868 11.7846 13.1988 11.7966 13.2108C11.8086 13.2228 11.8206 13.2348 11.8326 13.2468C11.8446 13.2588 11.8566 13.2708 11.8686 13.2828C11.8806 13.2948 11.8926 13.3068 11.9046 13.3188C11.9166 13.3308 11.9286 13.3428 11.9406 13.3548C11.9526 13.3668 11.9646 13.3788 11.9766 13.3909C11.9887 13.4029 12.0007 13.4149 12.0127 13.4269C12.0247 13.4389 12.0367 13.451 12.0488 13.463C12.0608 13.475 12.0728 13.487 12.0849 13.4991C12.0969 13.5111 12.1089 13.5231 12.121 13.5352C12.133 13.5472 12.145 13.5593 12.1571 13.5713C12.1691 13.5833 12.1812 13.5954 12.1932 13.6074C12.2053 13.6195 12.2173 13.6315 12.2294 13.6436C12.2414 13.6556 12.2535 13.6677 12.2655 13.6797C12.2776 13.6918 12.2897 13.7039 12.3017 13.7159C12.3138 13.728 12.3258 13.7401 12.3379 13.7521C12.35 13.7642 12.3621 13.7763 12.3741 13.7883C12.3862 13.8004 12.3983 13.8125 12.4104 13.8246C12.4225 13.8367 12.4345 13.8488 12.4466 13.8608C12.4587 13.8729 12.4708 13.885 12.4829 13.8971C12.495 13.9092 12.5071 13.9213 12.5192 13.9334C12.5313 13.9455 12.5434 13.9576 12.5555 13.9697C12.5676 13.9818 12.5797 13.9939 12.5918 14.006C12.6039 14.0182 12.6161 14.0303 12.6282 14.0424C12.6403 14.0545 12.6524 14.0666 12.6646 14.0788C12.6767 14.0909 12.6888 14.103 12.7009 14.1152C12.7131 14.1273 12.7252 14.1394 12.7374 14.1516C12.7495 14.1637 12.7616 14.1758 12.7738 14.188C12.7859 14.2001 12.7981 14.2123 12.8102 14.2244C12.8224 14.2366 12.8345 14.2488 12.8467 14.2609C12.8589 14.2731 12.871 14.2852 12.8832 14.2974C12.8954 14.3096 12.9075 14.3218 12.9197 14.3339C12.9319 14.3461 12.9441 14.3583 12.9563 14.3705C12.9684 14.3827 12.9806 14.3948 12.9928 14.407C13.005 14.4192 13.0172 14.4314 13.0294 14.4436C13.0416 14.4558 13.0538 14.468 13.066 14.4802C13.0782 14.4924 13.0904 14.5047 13.1027 14.5169C13.1149 14.5291 13.1271 14.5413 13.1393 14.5535C13.1515 14.5657 13.1638 14.578 13.176 14.5902C13.1882 14.6024 13.2005 14.6147 13.2127 14.6269C13.2249 14.6391 13.2372 14.6514 13.2494 14.6636C13.2617 14.6759 13.2739 14.6881 13.2862 14.7004C13.2984 14.7127 13.3107 14.7249 13.323 14.7372C13.3352 14.7494 13.3475 14.7617 13.3598 14.774C13.372 14.7863 13.3843 14.7985 13.3966 14.8108C13.4089 14.8231 13.4212 14.8354 13.4335 14.8477C13.4458 14.86 13.458 14.8723 13.4703 14.8846C13.4826 14.8969 13.495 14.9092 13.5073 14.9215C13.5196 14.9338 13.5319 14.9461 13.5442 14.9584C13.5565 14.9707 13.5688 14.9831 13.5812 14.9954C13.5935 15.0077 13.6058 15.02 13.6182 15.0324C13.6305 15.0447 13.6428 15.0571 13.6552 15.0694C13.6675 15.0817 13.6799 15.0941 13.6922 15.1065C13.7046 15.1188 13.717 15.1312 13.7293 15.1435C13.7417 15.1559 13.7541 15.1683 13.7664 15.1806C13.7788 15.193 13.7912 15.2054 13.8036 15.2178C13.816 15.2302 13.8283 15.2426 13.8407 15.255C13.8531 15.2674 13.8655 15.2798 13.8779 15.2922C13.8903 15.3046 13.9028 15.317 13.9152 15.3294C13.9276 15.3418 13.94 15.3542 13.9524 15.3666C13.9649 15.3791 13.9773 15.3915 13.9897 15.4039C14.0022 15.4164 14.0146 15.4288 14.027 15.4413C14.0395 15.4537 14.0519 15.4662 14.0644 15.4786C14.0769 15.4911 14.0893 15.5035 14.1018 15.516C14.1143 15.5285 14.1267 15.5409 14.1392 15.5534C14.1517 15.5659 14.1642 15.5784 14.1767 15.5909C14.1891 15.6034 14.2016 15.6159 14.2141 15.6284C14.2266 15.6409 14.2392 15.6534 14.2517 15.6659C14.2642 15.6784 14.2767 15.6909 14.2892 15.7034C14.3017 15.7159 14.3143 15.7285 14.3268 15.741C14.3393 15.7535 14.3519 15.7661 14.3644 15.7786C14.377 15.7912 14.3895 15.8037 14.4021 15.8163C14.4146 15.8288 14.4272 15.8414 14.4398 15.854C14.4523 15.8665 14.4649 15.8791 14.4775 15.8917C14.4901 15.9043 14.5026 15.9169 14.5152 15.9294C14.5278 15.942 14.5404 15.9546 14.553 15.9672C14.5656 15.9798 14.5782 15.9925 14.5909 16.0051C14.6035 16.0177 14.6161 16.0303 14.6287 16.0429C14.6414 16.0556 14.654 16.0682 14.6666 16.0808C14.6793 16.0935 14.6919 16.1061 14.7046 16.1188C14.7172 16.1314 14.7299 16.1441 14.7425 16.1568C14.7552 16.1694 14.7679 16.1821 14.7806 16.1948C14.7932 16.2074 14.8059 16.2201 14.8186 16.2328C14.8313 16.2455 14.844 16.2582 14.8567 16.2709C14.8694 16.2836 14.8821 16.2963 14.8948 16.309C14.9075 16.3218 14.9203 16.3345 14.933 16.3472C14.9457 16.3599 14.9585 16.3727 14.9712 16.3854C14.9839 16.3981 14.9967 16.4109 15.0094 16.4237C15.0222 16.4364 15.035 16.4492 15.0477 16.4619C15.0605 16.4747 15.0733 16.4875 15.086 16.5003C15.0988 16.513 15.1116 16.5258 15.1244 16.5386C15.1372 16.5514 15.15 16.5642 15.1628 16.577C15.1756 16.5898 15.1884 16.6027 15.2013 16.6155C15.2141 16.6283 15.2269 16.6411 15.2397 16.654C15.2526 16.6668 15.2654 16.6796 15.2783 16.6925C15.2911 16.7053 15.304 16.7182 15.3168 16.7311C15.3297 16.7439 15.3426 16.7568 15.3555 16.7697C15.3683 16.7825 15.3812 16.7954 15.3941 16.8083C15.407 16.8212 15.4199 16.8341 15.4328 16.847C15.4457 16.8599 15.4586 16.8728 15.4715 16.8858C15.4845 16.8987 15.4974 16.9116 15.5103 16.9245C15.5233 16.9375 15.5362 16.9504 15.5492 16.9634C15.5621 16.9763 15.5751 16.9893 15.588 17.0022C15.601 17.0152 15.614 17.0282 15.6269 17.0412C15.6399 17.0541 15.6529 17.0671 15.6659 17.0801C15.6789 17.0931 15.6919 17.1061 15.7049 17.1191C15.7179 17.1321 15.7309 17.1451 15.744 17.1582C15.757 17.1712 15.77 17.1842 15.783 17.1973C15.7961 17.2103 15.8091 17.2233 15.8222 17.2364C15.8352 17.2495 15.8483 17.2625 15.8614 17.2756C15.8744 17.2887 15.8875 17.3017 15.9006 17.3148C15.9137 17.3279 15.9268 17.341 15.9399 17.3541C15.953 17.3672 15.9661 17.3803 15.9792 17.3934C15.9923 17.4065 16.0055 17.4197 16.0186 17.4328C16.0317 17.4459 16.0449 17.4591 16.058 17.4722C16.0712 17.4854 16.0843 17.4985 16.0975 17.5117C16.1106 17.5248 16.1238 17.538 16.137 17.5512C16.1502 17.5644 16.1634 17.5776 16.1766 17.5908C16.1898 17.604 16.203 17.6172 16.2162 17.6304C16.2294 17.6436 16.2426 17.6568 16.2558 17.67C16.2691 17.6833 16.2823 17.6965 16.2955 17.7098C16.3088 17.723 16.322 17.7363 16.3353 17.7495C16.3486 17.7628 16.3618 17.7761 16.3751 17.7893C16.3884 17.8026 16.4017 17.8159 16.415 17.8292C16.4283 17.8425 16.4416 17.8558 16.4549 17.8691C16.4682 17.8824 16.4815 17.8957 16.4949 17.9091C16.5082 17.9224 16.5215 17.9357 16.5349 17.9491C16.5482 17.9624 16.5616 17.9758 16.5749 17.9892C16.5883 18.0025 16.6017 18.0159 16.6151 18.0293C16.6284 18.0427 16.6418 18.056 16.6552 18.0694C16.6686 18.0828 16.682 18.0962 16.6955 18.1097C16.7089 18.1231 16.7223 18.1365 16.7357 18.1499C16.7492 18.1634 16.7626 18.1768 16.7761 18.1903C16.7895 18.2037 16.803 18.2172 16.8164 18.2307C16.8299 18.2441 16.8434 18.2576 16.8569 18.2711C16.8704 18.2846 16.8839 18.2981 16.8974 18.3116C16.9109 18.3251 16.9244 18.3386 16.9379 18.3521C16.9514 18.3656 16.965 18.3792 16.9785 18.3927C16.9921 18.4063 17.0056 18.4198 17.0192 18.4334C17.0327 18.4469 17.0463 18.4605 17.0599 18.4741C17.0735 18.4877 17.087 18.5013 17.1006 18.5149C17.1142 18.5284 17.1278 18.5421 17.1415 18.5557C17.1551 18.5693 17.1687 18.5829 17.1823 18.5965C17.196 18.6102 17.2096 18.6238 17.2233 18.6375C17.2369 18.6511 17.2506 18.6648 17.2643 18.6785C17.2779 18.6921 17.2916 18.7058 17.3053 18.7195C17.319 18.7332 17.3327 18.7469 17.3464 18.7606C17.3601 18.7743 17.3738 18.7881 17.3876 18.8018C17.4013 18.8155 17.415 18.8293 17.4288 18.843C17.4425 18.8568 17.4563 18.8705 17.4701 18.8843C17.4838 18.8981 17.4976 18.9118 17.5114 18.9256C17.5252 18.9394 17.539 18.9532 17.5528 18.967C17.5666 18.9808 17.5804 18.9946 17.5943 19.0085C17.6081 19.0223 17.6219 19.0361 17.6358 19.05C17.6496 19.0638 17.6635 19.0777 17.6773 19.0916C17.6912 19.1054 17.7051 19.1193 17.719 19.1332C17.7329 19.1471 17.7468 19.161 17.7607 19.1749C17.7746 19.1888 17.7885 19.2027 17.8024 19.2166C17.8164 19.2306 17.8303 19.2445 17.8442 19.2585C17.8582 19.2724 17.8722 19.2864 17.8861 19.3003C17.9001 19.3143 17.9141 19.3283 17.9281 19.3423C17.9421 19.3563 17.9561 19.3703 17.9701 19.3843C17.9841 19.3983 17.9981 19.4123 18.0121 19.4263C18.0262 19.4404 18.0402 19.4544 18.0543 19.4685C18.0683 19.4825 18.0824 19.4966 18.0964 19.5107C18.1105 19.5247 18.1246 19.5388 18.1387 19.5529C18.1528 19.567 18.1669 19.5811 18.181 19.5952C18.1951 19.6093 18.2093 19.6235 18.2234 19.6376C18.2375 19.6517 18.2517 19.6659 18.2658 19.6801C18.28 19.6942 18.2942 19.7084 18.3083 19.7226C18.3225 19.7367 18.3367 19.7509 18.3509 19.7651C18.3651 19.7793 18.3793 19.7936 18.3936 19.8078C18.4078 19.822 18.422 19.8362 18.4363 19.8505C18.4505 19.8647 18.4648 19.879 18.479 19.8932C18.4933 19.9075 18.5076 19.9218 18.5219 19.9361C18.5362 19.9504 18.5505 19.9647 18.5648 19.979C18.5791 19.9933 18.5934 20.0076 18.6077 20.022C18.6221 20.0363 18.6364 20.0506 18.6508 20.065C18.6651 20.0793 18.6795 20.0937 18.6939 20.1081C18.7083 20.1225 18.7226 20.1369 18.737 20.1513C18.7514 20.1657 18.7659 20.1801 18.7803 20.1945C18.7947 20.2089 18.8091 20.2234 18.8236 20.2378C18.838 20.2523 18.8525 20.2667 18.867 20.2812C18.8814 20.2956 18.8959 20.3101 18.9104 20.3246C18.9249 20.3391 18.9394 20.3536 18.9539 20.3681C18.9684 20.3826 18.983 20.3972 18.9975 20.4117C19.012 20.4263 19.0266 20.4408 19.0412 20.4554C19.0557 20.4699 19.0703 20.4845 19.0849 20.4991C19.0995 20.5137 19.1141 20.5283 19.1287 20.5429C19.1433 20.5575 19.1579 20.5721 19.1725 20.5867C19.1872 20.6014 19.2018 20.616 19.2165 20.6307C19.2311 20.6453 19.2458 20.66 19.2605 20.6747C19.2751 20.6894 19.2898 20.704 19.3045 20.7187C19.3192 20.7335 19.334 20.7482 19.3487 20.7629C19.3634 20.7776 19.3781 20.7924 19.3929 20.8071C19.4077 20.8219 19.4224 20.8366 19.4372 20.8514C19.452 20.8662 19.4668 20.881 19.4816 20.8958C19.4964 20.9106 19.5112 20.9254 19.526 20.9402C19.5408 20.955 19.5557 20.9699 19.5705 20.9847C19.5854 20.9996 19.6002 21.0144 19.6151 21.0293C19.63 21.0442 19.6448 21.0591 19.6597 21.074C19.6746 21.0889 19.6896 21.1038 19.7045 21.1187C19.7194 21.1336 19.7343 21.1486 19.7493 21.1635C19.7642 21.1784 19.7792 21.1934 19.7942 21.2084C19.8091 21.2234 19.8241 21.2383 19.8391 21.2533C19.8541 21.2683 19.8691 21.2833 19.8842 21.2984C19.8992 21.3134 19.9142 21.3284 19.9293 21.3435C19.9443 21.3585 19.9594 21.3736 19.9744 21.3887C19.9895 21.4037 20.0046 21.4188 20.0197 21.4339C20.0348 21.449 20.0499 21.4641 20.065 21.4793C20.0802 21.4944 20.0953 21.5095 20.1105 21.5247C20.1256 21.5398 20.1408 21.555 20.156 21.5702C20.1711 21.5853 20.1863 21.6005 20.2015 21.6157C20.2167 21.6309 20.2319 21.6462 20.2472 21.6614C20.2624 21.6766 20.2776 21.6919 20.2929 21.7071L21.7071 20.2929ZM1.70711 21.7071L11.7071 11.7071L10.2929 10.2929L0.292893 20.2929L1.70711 21.7071ZM11.7071 11.7071L21.7071 1.70711L20.2929 0.292893L10.2929 10.2929L11.7071 11.7071Z" fill="white"/>
</svg>
