<svg width="12" height="13" viewBox="0 0 12 13" fill="none" xmlns="http://www.w3.org/2000/svg">
<path d="M1.50005 5.36826C1.49881 5.44427 1.5207 5.51887 1.56283 5.58216C1.60495 5.64545 1.66532 5.69444 1.73593 5.72263L5.3363 7.16301L6.77668 10.7638C6.8045 10.8334 6.85257 10.8931 6.91467 10.9352C6.97677 10.9772 7.05005 10.9997 7.12505 10.9996H7.13105C7.207 10.9984 7.2808 10.9742 7.34267 10.9301C7.40455 10.8861 7.45158 10.8243 7.47755 10.7529L10.4776 2.50288C10.5021 2.43577 10.507 2.36303 10.4916 2.29324C10.4762 2.22345 10.4412 2.15952 10.3907 2.10896C10.3401 2.05841 10.2762 2.02334 10.2065 2.00789C10.1367 1.99244 10.0639 1.99725 9.9968 2.02176L1.7468 5.02176C1.67539 5.0478 1.61356 5.0949 1.5695 5.15684C1.52544 5.21878 1.50122 5.29263 1.50005 5.36863V5.36826Z" fill="#F2F4E7"/>
</svg>
