<svg width="20" height="16" viewBox="0 0 20 16" fill="none" xmlns="http://www.w3.org/2000/svg">
<path d="M14.7364 5.14048V3.23382C14.7364 2.72814 14.5386 2.24317 14.1866 1.8856C13.8346 1.52803 13.3571 1.32715 12.8593 1.32715H3.47378C2.97594 1.32715 2.49849 1.52803 2.14647 1.8856C1.79444 2.24317 1.59668 2.72814 1.59668 3.23382V8.95382C1.59668 9.4595 1.79444 9.94446 2.14647 10.302C2.49849 10.6596 2.97594 10.8605 3.47378 10.8605H5.35088L14.7364 5.14048ZM7.22798 14.6738H16.6135C17.1113 14.6738 17.5888 14.4729 17.9408 14.1154C18.2928 13.7578 18.4906 13.2728 18.4906 12.7672V7.04715C18.4906 6.54147 18.2928 6.0565 17.9408 5.69893C17.5888 5.34136 17.1113 5.14048 16.6135 5.14048H7.22798C6.73014 5.14048 6.25269 5.34136 5.90067 5.69893C5.54864 6.0565 5.35088 6.54147 5.35088 7.04715V12.7672C5.35088 13.2728 5.54864 13.7578 5.90067 14.1154C6.25269 14.4729 6.73014 14.6738 7.22798 14.6738ZM13.7978 9.90715C13.7978 10.4128 13.6001 10.8978 13.248 11.2554C12.896 11.6129 12.4186 11.8138 11.9207 11.8138C11.4229 11.8138 10.9454 11.6129 10.5934 11.2554C10.2414 10.8978 10.0436 10.4128 10.0436 9.90715C10.0436 9.40147 10.2414 8.9165 10.5934 8.55893C10.9454 8.20136 11.4229 8.00048 11.9207 8.00048C12.4186 8.00048 12.896 8.20136 13.248 8.55893C13.6001 8.9165 13.7978 9.40147 13.7978 9.90715V9.90715Z" stroke="url(#paint0_linear_15_5930)" stroke-width="1.5" stroke-linecap="round" stroke-linejoin="round"/>
<defs>
<linearGradient id="paint0_linear_15_5930" x1="10.0436" y1="0.269181" x2="16.2467" y2="12.2124" gradientUnits="userSpaceOnUse">
<stop stop-color="#6B7F87"/>
<stop offset="1" stop-color="#2A4752"/>
</linearGradient>
</defs>
</svg>
